<svg xmlns="http://www.w3.org/2000/svg" viewBox="0 0 750 500" width="750" height="500"><g><path fill="#fff" d="M276.84 109.57H482.58V229.45H276.84z"/><path d="M483.28,230.16H276.13V108.86H483.28Z" fill="#ebebeb"/><path d="M292.93,223.41c-.11,0-.2-24.51-.2-54.74s.09-54.75.2-54.75.19,24.51.19,54.75S293,223.41,292.93,223.41Z" fill="#e0e0e0"/><path d="M288.7,118.53a29.17,29.17,0,0,1-6.82,0,30.7,30.7,0,0,1,6.82,0Z" fill="#e0e0e0"/><path d="M288.7,125.75a29.17,29.17,0,0,1-6.82,0,29.17,29.17,0,0,1,6.82,0Z" fill="#e0e0e0"/><path d="M288.7,133a30.7,30.7,0,0,1-6.82,0,29.17,29.17,0,0,1,6.82,0Z" fill="#e0e0e0"/><path d="M288.7,140.18a29.17,29.17,0,0,1-6.82,0,29.17,29.17,0,0,1,6.82,0Z" fill="#e0e0e0"/><path d="M288.7,147.4a30.7,30.7,0,0,1-6.82,0,29.17,29.17,0,0,1,6.82,0Z" fill="#e0e0e0"/><path d="M288.7,154.61a29.17,29.17,0,0,1-6.82,0,29.17,29.17,0,0,1,6.82,0Z" fill="#e0e0e0"/><path d="M288.7,161.83a30.7,30.7,0,0,1-6.82,0,29.17,29.17,0,0,1,6.82,0Z" fill="#e0e0e0"/><path d="M288.7,169a29.17,29.17,0,0,1-6.82,0,29.17,29.17,0,0,1,6.82,0Z" fill="#e0e0e0"/><path d="M288.7,176.26a30.7,30.7,0,0,1-6.82,0,29.17,29.17,0,0,1,6.82,0Z" fill="#e0e0e0"/><path d="M288.7,183.47a29.17,29.17,0,0,1-6.82,0,29.17,29.17,0,0,1,6.82,0Z" fill="#e0e0e0"/><path d="M288.7,190.69a30.7,30.7,0,0,1-6.82,0,29.17,29.17,0,0,1,6.82,0Z" fill="#e0e0e0"/><path d="M288.7,197.9a29.17,29.17,0,0,1-6.82,0,29.17,29.17,0,0,1,6.82,0Z" fill="#e0e0e0"/><path d="M288.7,205.12a30.7,30.7,0,0,1-6.82,0,29.17,29.17,0,0,1,6.82,0Z" fill="#e0e0e0"/><path d="M288.7,212.33a29.17,29.17,0,0,1-6.82,0,30.7,30.7,0,0,1,6.82,0Z" fill="#e0e0e0"/><path d="M288.7,219.55a30.7,30.7,0,0,1-6.82,0,29.17,29.17,0,0,1,6.82,0Z" fill="#e0e0e0"/><path d="M316,118.11c0,.11-4,.2-8.84.2s-8.85-.09-8.85-.2,4-.2,8.85-.2S316,118,316,118.11Z" fill="#e0e0e0"/><path d="M316,219.55c0,.11-4,.19-8.84.19s-8.85-.08-8.85-.19,4-.2,8.85-.2S316,219.44,316,219.55Z" fill="#e0e0e0"/><path d="M340.63,133c0,.1-7.4.19-16.54.19s-16.54-.09-16.54-.19,7.4-.2,16.54-.2S340.63,132.86,340.63,133Z" fill="#e0e0e0"/><path d="M378.89,133c0,.1-7.41.19-16.54.19s-16.55-.09-16.55-.19,7.41-.2,16.55-.2S378.89,132.86,378.89,133Z" fill="#e0e0e0"/><path d="M364.27,140.18c0,.11-10.92.2-24.38.2s-24.38-.09-24.38-.2,10.91-.2,24.38-.2S364.27,140.07,364.27,140.18Z" fill="#e0e0e0"/><path d="M364.27,147.4c0,.1-10.92.19-24.38.19s-24.38-.09-24.38-.19,10.91-.2,24.38-.2S364.27,147.29,364.27,147.4Z" fill="#e0e0e0"/><path d="M397.83,169c0,.11-10.92.2-24.38.2s-24.38-.09-24.38-.2,10.92-.2,24.38-.2S397.83,168.93,397.83,169Z" fill="#e0e0e0"/><path d="M383.35,154.61c0,.11-10.92.2-24.38.2s-24.38-.09-24.38-.2,10.91-.2,24.38-.2S383.35,154.5,383.35,154.61Z" fill="#e0e0e0"/><path d="M442.93,154.61c0,.11-10.92.2-24.38.2s-24.38-.09-24.38-.2,10.92-.2,24.38-.2S442.93,154.5,442.93,154.61Z" fill="#e0e0e0"/><path d="M422.21,140.18c0,.11-10.92.2-24.38.2s-24.38-.09-24.38-.2,10.91-.2,24.38-.2S422.21,140.07,422.21,140.18Z" fill="#e0e0e0"/><path d="M455.89,169c0,.11-10.92.2-24.38.2s-24.38-.09-24.38-.2,10.91-.2,24.38-.2S455.89,168.93,455.89,169Z" fill="#e0e0e0"/><path d="M449.16,147.4c0,.1-17,.19-37.85.19s-37.86-.09-37.86-.19,16.95-.2,37.86-.2S449.16,147.29,449.16,147.4Z" fill="#e0e0e0"/><path d="M316,125.75c0,.11-4,.2-8.84.2s-8.85-.09-8.85-.2,4-.2,8.85-.2S316,125.64,316,125.75Z" fill="#e0e0e0"/><path d="M316,212.33c0,.11-4,.2-8.84.2s-8.85-.09-8.85-.2,4-.19,8.85-.19S316,212.22,316,212.33Z" fill="#e0e0e0"/><path d="M324.77,154.61c0,.11-4,.2-8.84.2s-8.85-.09-8.85-.2,4-.2,8.85-.2S324.77,154.5,324.77,154.61Z" fill="#e0e0e0"/><path d="M466.49,154.61c0,.11-4,.2-8.84.2s-8.84-.09-8.84-.2,3.95-.2,8.84-.2S466.49,154.5,466.49,154.61Z" fill="#e0e0e0"/><path d="M340.63,183.43c0,.11-7.4.2-16.54.2s-16.54-.09-16.54-.2,7.4-.2,16.54-.2S340.63,183.32,340.63,183.43Z" fill="#e0e0e0"/><path d="M378.89,183.43c0,.11-7.41.2-16.54.2s-16.55-.09-16.55-.2,7.41-.2,16.55-.2S378.89,183.32,378.89,183.43Z" fill="#e0e0e0"/><path d="M364.27,190.64c0,.11-10.92.2-24.38.2s-24.38-.09-24.38-.2,10.91-.19,24.38-.19S364.27,190.54,364.27,190.64Z" fill="#e0e0e0"/><path d="M364.27,197.86c0,.11-10.92.2-24.38.2s-24.38-.09-24.38-.2,10.91-.2,24.38-.2S364.27,197.75,364.27,197.86Z" fill="#e0e0e0"/><path d="M383.35,205.07c0,.11-10.92.2-24.38.2s-24.38-.09-24.38-.2,10.91-.19,24.38-.19S383.35,205,383.35,205.07Z" fill="#e0e0e0"/><path d="M442.93,205.07c0,.11-10.92.2-24.38.2s-24.38-.09-24.38-.2,10.92-.19,24.38-.19S442.93,205,442.93,205.07Z" fill="#e0e0e0"/><path d="M422.21,190.64c0,.11-10.92.2-24.38.2s-24.38-.09-24.38-.2,10.91-.19,24.38-.19S422.21,190.54,422.21,190.64Z" fill="#e0e0e0"/><path d="M449.16,197.86c0,.11-17,.2-37.85.2s-37.86-.09-37.86-.2,16.95-.2,37.86-.2S449.16,197.75,449.16,197.86Z" fill="#e0e0e0"/><path d="M324.77,205.07c0,.11-4,.2-8.84.2s-8.85-.09-8.85-.2,4-.19,8.85-.19S324.77,205,324.77,205.07Z" fill="#e0e0e0"/><path d="M466.49,205.07c0,.11-4,.2-8.84.2s-8.84-.09-8.84-.2,3.95-.19,8.84-.19S466.49,205,466.49,205.07Z" fill="#e0e0e0"/><path fill="#e0e0e0" d="M38.98 174.26H108.94V224.13H38.98z"/><path d="M109.48,181.66c0,.12-15.79.22-35.26.22S39,181.78,39,181.66s15.78-.22,35.27-.22S109.48,181.54,109.48,181.66Z" fill="#fff"/><path d="M44.69,178a.9.9,0,0,1-.95.83.84.84,0,1,1,0-1.66A.9.9,0,0,1,44.69,178Z" fill="#fff"/><path d="M48.12,178a.95.95,0,1,1-.94-.83A.89.89,0,0,1,48.12,178Z" fill="#fff"/><path d="M51.55,178a.95.95,0,1,1-.94-.83A.89.89,0,0,1,51.55,178Z" fill="#fff"/><path fill="#fff" d="M254.32 247.75H359.84V309.24H254.32z"/><path d="M360.21,309.6H254V247.39H360.21Z" fill="#f5f5f5"/><path d="M262.58,306.14c-.06,0-.11-12.57-.11-28.08s0-28.08.11-28.08.1,12.57.1,28.08S262.63,306.14,262.58,306.14Z" fill="#e0e0e0"/><path d="M260.41,252.35a15.36,15.36,0,0,1-3.5,0,15.36,15.36,0,0,1,3.5,0Z" fill="#e0e0e0"/><path d="M260.41,256.05a15.36,15.36,0,0,1-3.5,0,15.36,15.36,0,0,1,3.5,0Z" fill="#e0e0e0"/><path d="M260.41,259.75a15.36,15.36,0,0,1-3.5,0,15.36,15.36,0,0,1,3.5,0Z" fill="#e0e0e0"/><path d="M260.41,263.45a15.36,15.36,0,0,1-3.5,0,15.36,15.36,0,0,1,3.5,0Z" fill="#e0e0e0"/><path d="M260.41,267.15a15.36,15.36,0,0,1-3.5,0,15.36,15.36,0,0,1,3.5,0Z" fill="#e0e0e0"/><path d="M260.41,270.85a15.36,15.36,0,0,1-3.5,0,15.36,15.36,0,0,1,3.5,0Z" fill="#e0e0e0"/><path d="M260.41,274.55a15.36,15.36,0,0,1-3.5,0,15.36,15.36,0,0,1,3.5,0Z" fill="#e0e0e0"/><path d="M260.41,278.25a15.36,15.36,0,0,1-3.5,0,15.36,15.36,0,0,1,3.5,0Z" fill="#e0e0e0"/><path d="M260.41,282a15.36,15.36,0,0,1-3.5,0,15.36,15.36,0,0,1,3.5,0Z" fill="#e0e0e0"/><path d="M260.41,285.65a14,14,0,0,1-3.5,0,15.36,15.36,0,0,1,3.5,0Z" fill="#e0e0e0"/><path d="M260.41,289.36a15.36,15.36,0,0,1-3.5,0,14,14,0,0,1,3.5,0Z" fill="#e0e0e0"/><path d="M260.41,293.06a15.36,15.36,0,0,1-3.5,0,14,14,0,0,1,3.5,0Z" fill="#e0e0e0"/><path d="M260.41,296.76a15.36,15.36,0,0,1-3.5,0,15.36,15.36,0,0,1,3.5,0Z" fill="#e0e0e0"/><path d="M260.41,300.46a15.36,15.36,0,0,1-3.5,0,15.36,15.36,0,0,1,3.5,0Z" fill="#e0e0e0"/><path d="M260.41,304.16a15.36,15.36,0,0,1-3.5,0,15.36,15.36,0,0,1,3.5,0Z" fill="#e0e0e0"/><path d="M274.41,252.13c0,.06-2,.1-4.53.1s-4.54,0-4.54-.1,2-.1,4.54-.1S274.41,252.07,274.41,252.13Z" fill="#e0e0e0"/><path d="M274.41,304.16s-2,.1-4.53.1-4.54-.05-4.54-.1,2-.1,4.54-.1S274.41,304.1,274.41,304.16Z" fill="#e0e0e0"/><path d="M287,259.75c0,.06-3.8.1-8.48.1s-8.49,0-8.49-.1,3.8-.1,8.49-.1S287,259.69,287,259.75Z" fill="#e0e0e0"/><path d="M306.67,259.75c0,.06-3.8.1-8.49.1s-8.48,0-8.48-.1,3.79-.1,8.48-.1S306.67,259.69,306.67,259.75Z" fill="#e0e0e0"/><path d="M299.17,263.45c0,.06-5.6.1-12.51.1s-12.5,0-12.5-.1,5.6-.1,12.5-.1S299.17,263.39,299.17,263.45Z" fill="#e0e0e0"/><path d="M299.17,267.15c0,.06-5.6.1-12.51.1s-12.5,0-12.5-.1,5.6-.1,12.5-.1S299.17,267.1,299.17,267.15Z" fill="#e0e0e0"/><path d="M316.38,278.25c0,.06-5.6.1-12.5.1s-12.51,0-12.51-.1,5.6-.1,12.51-.1S316.38,278.2,316.38,278.25Z" fill="#e0e0e0"/><path d="M309,270.85c0,.06-5.6.1-12.5.1s-12.51,0-12.51-.1,5.6-.1,12.51-.1S309,270.8,309,270.85Z" fill="#e0e0e0"/><path d="M339.51,270.85c0,.06-5.6.1-12.5.1s-12.51,0-12.51-.1,5.6-.1,12.51-.1S339.51,270.8,339.51,270.85Z" fill="#e0e0e0"/><path d="M328.88,263.45c0,.06-5.59.1-12.5.1s-12.5,0-12.5-.1,5.59-.1,12.5-.1S328.88,263.39,328.88,263.45Z" fill="#e0e0e0"/><path d="M346.16,278.25c0,.06-5.6.1-12.5.1s-12.51,0-12.51-.1,5.6-.1,12.51-.1S346.16,278.2,346.16,278.25Z" fill="#e0e0e0"/><path d="M342.71,267.15c0,.06-8.69.1-19.42.1s-19.41,0-19.41-.1,8.69-.1,19.41-.1S342.71,267.1,342.71,267.15Z" fill="#e0e0e0"/><path d="M274.41,256.05c0,.05-2,.1-4.53.1s-4.54,0-4.54-.1,2-.1,4.54-.1S274.41,256,274.41,256.05Z" fill="#e0e0e0"/><path d="M274.41,300.46c0,.05-2,.1-4.53.1s-4.54-.05-4.54-.1,2-.1,4.54-.1S274.41,300.4,274.41,300.46Z" fill="#e0e0e0"/><path d="M278.91,270.85c0,.06-2,.1-4.54.1s-4.53,0-4.53-.1,2-.1,4.53-.1S278.91,270.8,278.91,270.85Z" fill="#e0e0e0"/><path d="M351.6,270.85c0,.06-2,.1-4.54.1s-4.53,0-4.53-.1,2-.1,4.53-.1S351.6,270.8,351.6,270.85Z" fill="#e0e0e0"/><path d="M287,285.63c0,.06-3.8.1-8.48.1s-8.49,0-8.49-.1,3.8-.1,8.49-.1S287,285.58,287,285.63Z" fill="#e0e0e0"/><path d="M306.67,285.63c0,.06-3.8.1-8.49.1s-8.48,0-8.48-.1,3.79-.1,8.48-.1S306.67,285.58,306.67,285.63Z" fill="#e0e0e0"/><path d="M299.17,289.33c0,.06-5.6.1-12.51.1s-12.5,0-12.5-.1,5.6-.1,12.5-.1S299.17,289.28,299.17,289.33Z" fill="#e0e0e0"/><path d="M299.17,293c0,.06-5.6.11-12.51.11s-12.5-.05-12.5-.11,5.6-.1,12.5-.1S299.17,293,299.17,293Z" fill="#e0e0e0"/><path d="M309,296.73c0,.06-5.6.11-12.5.11s-12.51,0-12.51-.11,5.6-.1,12.51-.1S309,296.68,309,296.73Z" fill="#e0e0e0"/><path d="M339.51,296.73c0,.06-5.6.11-12.5.11s-12.51,0-12.51-.11,5.6-.1,12.51-.1S339.51,296.68,339.51,296.73Z" fill="#e0e0e0"/><path d="M328.88,289.33c0,.06-5.59.1-12.5.1s-12.5,0-12.5-.1,5.59-.1,12.5-.1S328.88,289.28,328.88,289.33Z" fill="#e0e0e0"/><path d="M342.71,293c0,.06-8.69.11-19.42.11s-19.41-.05-19.41-.11,8.69-.1,19.41-.1S342.71,293,342.71,293Z" fill="#e0e0e0"/><path d="M278.91,296.73c0,.06-2,.11-4.54.11s-4.53,0-4.53-.11,2-.1,4.53-.1S278.91,296.68,278.91,296.73Z" fill="#e0e0e0"/><path d="M351.6,296.73c0,.06-2,.11-4.54.11s-4.53,0-4.53-.11,2-.1,4.53-.1S351.6,296.68,351.6,296.73Z" fill="#e0e0e0"/><path fill="#fff" d="M555.98 43.32H661.5V104.81H555.98z"/><path d="M661.86,105.17H555.61V43H661.86Z" fill="#f5f5f5"/><path d="M564.23,101.71c-.06,0-.1-12.57-.1-28.08s0-28.08.1-28.08.1,12.57.1,28.08S564.28,101.71,564.23,101.71Z" fill="#e0e0e0"/><path d="M562.06,47.92a15.36,15.36,0,0,1-3.5,0,15.36,15.36,0,0,1,3.5,0Z" fill="#e0e0e0"/><path d="M562.06,51.62a15.36,15.36,0,0,1-3.5,0,15.36,15.36,0,0,1,3.5,0Z" fill="#e0e0e0"/><path d="M562.06,55.32a15.36,15.36,0,0,1-3.5,0,15.36,15.36,0,0,1,3.5,0Z" fill="#e0e0e0"/><path d="M562.06,59a15.36,15.36,0,0,1-3.5,0,15.36,15.36,0,0,1,3.5,0Z" fill="#e0e0e0"/><path d="M562.06,62.72a15.36,15.36,0,0,1-3.5,0,15.36,15.36,0,0,1,3.5,0Z" fill="#e0e0e0"/><path d="M562.06,66.42a15.36,15.36,0,0,1-3.5,0,15.36,15.36,0,0,1,3.5,0Z" fill="#e0e0e0"/><path d="M562.06,70.12a15.36,15.36,0,0,1-3.5,0,15.36,15.36,0,0,1,3.5,0Z" fill="#e0e0e0"/><path d="M562.06,73.82a15.36,15.36,0,0,1-3.5,0,15.36,15.36,0,0,1,3.5,0Z" fill="#e0e0e0"/><path d="M562.06,77.52a15.36,15.36,0,0,1-3.5,0,15.36,15.36,0,0,1,3.5,0Z" fill="#e0e0e0"/><path d="M562.06,81.22a15.36,15.36,0,0,1-3.5,0,15.36,15.36,0,0,1,3.5,0Z" fill="#e0e0e0"/><path d="M562.06,84.92a14,14,0,0,1-3.5,0,15.36,15.36,0,0,1,3.5,0Z" fill="#e0e0e0"/><path d="M562.06,88.62a14,14,0,0,1-3.5,0,15.36,15.36,0,0,1,3.5,0Z" fill="#e0e0e0"/><path d="M562.06,92.33a15.36,15.36,0,0,1-3.5,0,14,14,0,0,1,3.5,0Z" fill="#e0e0e0"/><path d="M562.06,96a15.36,15.36,0,0,1-3.5,0,15.36,15.36,0,0,1,3.5,0Z" fill="#e0e0e0"/><path d="M562.06,99.73a15.36,15.36,0,0,1-3.5,0,15.36,15.36,0,0,1,3.5,0Z" fill="#e0e0e0"/><path d="M576.07,47.7c0,.06-2,.1-4.54.1s-4.53,0-4.53-.1,2-.1,4.53-.1S576.07,47.64,576.07,47.7Z" fill="#e0e0e0"/><path d="M576.07,99.73s-2,.1-4.54.1-4.53,0-4.53-.1,2-.1,4.53-.1S576.07,99.67,576.07,99.73Z" fill="#e0e0e0"/><path d="M588.7,55.32s-3.8.1-8.49.1-8.48-.05-8.48-.1,3.8-.1,8.48-.1S588.7,55.26,588.7,55.32Z" fill="#e0e0e0"/><path d="M608.32,55.32s-3.8.1-8.49.1-8.48-.05-8.48-.1,3.8-.1,8.48-.1S608.32,55.26,608.32,55.32Z" fill="#e0e0e0"/><path d="M600.82,59c0,.06-5.6.1-12.5.1s-12.51,0-12.51-.1,5.6-.1,12.51-.1S600.82,59,600.82,59Z" fill="#e0e0e0"/><path d="M600.82,62.72c0,.06-5.6.1-12.5.1s-12.51,0-12.51-.1,5.6-.1,12.51-.1S600.82,62.66,600.82,62.72Z" fill="#e0e0e0"/><path d="M618,73.82c0,.06-5.59.1-12.5.1s-12.5,0-12.5-.1,5.59-.1,12.5-.1S618,73.77,618,73.82Z" fill="#e0e0e0"/><path d="M610.61,66.42c0,.06-5.6.1-12.51.1s-12.5,0-12.5-.1,5.59-.1,12.5-.1S610.61,66.37,610.61,66.42Z" fill="#e0e0e0"/><path d="M641.17,66.42c0,.06-5.6.1-12.51.1s-12.5,0-12.5-.1,5.6-.1,12.5-.1S641.17,66.37,641.17,66.42Z" fill="#e0e0e0"/><path d="M630.54,59c0,.06-5.6.1-12.51.1s-12.5,0-12.5-.1,5.6-.1,12.5-.1S630.54,59,630.54,59Z" fill="#e0e0e0"/><path d="M647.81,73.82c0,.06-5.6.1-12.5.1s-12.51,0-12.51-.1,5.6-.1,12.51-.1S647.81,73.77,647.81,73.82Z" fill="#e0e0e0"/><path d="M644.36,62.72c0,.06-8.69.1-19.41.1s-19.42,0-19.42-.1,8.69-.1,19.42-.1S644.36,62.66,644.36,62.72Z" fill="#e0e0e0"/><path d="M576.07,51.62c0,.05-2,.1-4.54.1s-4.53,0-4.53-.1,2-.1,4.53-.1S576.07,51.56,576.07,51.62Z" fill="#e0e0e0"/><path d="M576.07,96s-2,.1-4.54.1-4.53,0-4.53-.1,2-.1,4.53-.1S576.07,96,576.07,96Z" fill="#e0e0e0"/><path d="M580.56,66.42c0,.06-2,.1-4.53.1s-4.54,0-4.54-.1,2-.1,4.54-.1S580.56,66.37,580.56,66.42Z" fill="#e0e0e0"/><path d="M653.25,66.42c0,.06-2,.1-4.54.1s-4.53,0-4.53-.1,2-.1,4.53-.1S653.25,66.37,653.25,66.42Z" fill="#e0e0e0"/><path d="M588.7,81.2c0,.06-3.8.1-8.49.1s-8.48,0-8.48-.1,3.8-.1,8.48-.1S588.7,81.15,588.7,81.2Z" fill="#e0e0e0"/><path d="M608.32,81.2c0,.06-3.8.1-8.49.1s-8.48,0-8.48-.1,3.8-.1,8.48-.1S608.32,81.15,608.32,81.2Z" fill="#e0e0e0"/><path d="M600.82,84.9c0,.06-5.6.1-12.5.1s-12.51,0-12.51-.1,5.6-.1,12.51-.1S600.82,84.85,600.82,84.9Z" fill="#e0e0e0"/><path d="M600.82,88.6c0,.06-5.6.1-12.5.1s-12.51,0-12.51-.1,5.6-.1,12.51-.1S600.82,88.55,600.82,88.6Z" fill="#e0e0e0"/><path d="M610.61,92.3c0,.06-5.6.1-12.51.1s-12.5,0-12.5-.1,5.59-.1,12.5-.1S610.61,92.25,610.61,92.3Z" fill="#e0e0e0"/><path d="M641.17,92.3c0,.06-5.6.1-12.51.1s-12.5,0-12.5-.1,5.6-.1,12.5-.1S641.17,92.25,641.17,92.3Z" fill="#e0e0e0"/><path d="M630.54,84.9c0,.06-5.6.1-12.51.1s-12.5,0-12.5-.1,5.6-.1,12.5-.1S630.54,84.85,630.54,84.9Z" fill="#e0e0e0"/><path d="M644.36,88.6c0,.06-8.69.1-19.41.1s-19.42,0-19.42-.1,8.69-.1,19.42-.1S644.36,88.55,644.36,88.6Z" fill="#e0e0e0"/><path d="M580.56,92.3c0,.06-2,.1-4.53.1s-4.54,0-4.54-.1,2-.1,4.54-.1S580.56,92.25,580.56,92.3Z" fill="#e0e0e0"/><path d="M653.25,92.3c0,.06-2,.1-4.54.1s-4.53,0-4.53-.1,2-.1,4.53-.1S653.25,92.25,653.25,92.3Z" fill="#e0e0e0"/><path d="M687.24,189.43a4.41,4.41,0,0,1,.78-.88l2.26-2.28c1.93-1.9,4.61-4.5,7.6-7.36l.07-.06v.38c-3-2.79-5.71-5.35-7.65-7.21L688,169.79a4.24,4.24,0,0,1-.78-.87,5.61,5.61,0,0,1,.92.72l2.39,2.11c2,1.79,4.75,4.3,7.76,7.1l.21.19-.21.19-.07.07c-3,2.85-5.71,5.41-7.7,7.24l-2.38,2.15A5.24,5.24,0,0,1,687.24,189.43Z" fill="#e0e0e0"/><path d="M664,168.92a5.1,5.1,0,0,1-.78.89L661,172.08c-1.93,1.91-4.62,4.51-7.61,7.36l-.06.06v-.38c3,2.8,5.72,5.35,7.66,7.21l2.27,2.23a5.55,5.55,0,0,1,.79.87,5,5,0,0,1-.92-.72l-2.39-2.1c-2-1.8-4.75-4.31-7.76-7.1l-.21-.19.2-.2.07-.06c3-2.85,5.72-5.41,7.71-7.25l2.38-2.15A5.42,5.42,0,0,1,664,168.92Z" fill="#e0e0e0"/><path d="M670,194.26c-.14,0,2.3-6.91,5.45-15.32s5.8-15.18,5.94-15.13-2.31,6.91-5.45,15.32S670.09,194.31,670,194.26Z" fill="#e0e0e0"/><path d="M713.66,208.94s0-.4,0-1.15,0-1.86,0-3.3c0-2.9,0-7.12-.06-12.5,0-10.75-.07-26.13-.11-44.67l.22.22-75.62,0h0l.27-.26c0,22.28,0,43.31,0,61.62l-.24-.24,54.61.12,15.48.06,4.11,0,1.06,0h0l-1,0-4.06,0-15.43.07-54.76.11h-.23v-.23c0-18.31,0-39.34,0-61.62v-.26H638l75.62,0h.22v.22c0,18.6-.09,34-.12,44.81,0,5.36,0,9.56,0,12.45,0,1.42,0,2.5,0,3.26S713.66,208.94,713.66,208.94Z" fill="#e0e0e0"/><path d="M714.25,156.46c0,.15-17.07.27-38.12.27s-38.13-.12-38.13-.27,17.07-.26,38.13-.26S714.25,156.32,714.25,156.46Z" fill="#e0e0e0"/><path d="M644.21,152a1,1,0,1,1-1-1A1,1,0,0,1,644.21,152Z" fill="#e0e0e0"/><path d="M647.92,152a1,1,0,1,1-1-1A1,1,0,0,1,647.92,152Z" fill="#e0e0e0"/><path d="M651.63,152a1,1,0,1,1-1-1A1,1,0,0,1,651.63,152Z" fill="#e0e0e0"/></g><g><path d="M700.27,444.39l11.72-124a16.87,16.87,0,0,0-16.45-18.45L565.1,299.29A16.87,16.87,0,0,0,548,314.8L538,444.34Z" fill="#455a64"/><path d="M681.77,444.38a2.09,2.09,0,0,1,0-.44c0-.31.06-.74.1-1.29.1-1.16.25-2.83.43-5,.4-4.33,1-10.56,1.68-18.25,1.47-15.43,3.49-36.71,5.73-60.21,1.78-18.3,3.43-35.25,4.78-49.05v0c0-.68,0-1.36,0-2a8.19,8.19,0,0,0-.19-1.94,5.75,5.75,0,0,0-2-3A5.68,5.68,0,0,0,689,302l-3.43-.09-11.43-.28-7.31-.2-1.91-.07c-.44,0-.66,0-.66,0s.22,0,.66,0h1.92l7.31.09,11.43.18,3.43.06a6.1,6.1,0,0,1,5.63,4.52,8.11,8.11,0,0,1,.21,2l.06,2.05h0v0c-1.32,13.79-2.94,30.75-4.68,49-2.3,23.5-4.38,44.77-5.89,60.19-.77,7.69-1.4,13.91-1.84,18.24-.22,2.13-.4,3.8-.53,5-.06.55-.11,1-.15,1.29S681.77,444.38,681.77,444.38Z" fill="#263238"/><path d="M524.94,348.77c-1.75.05-14,22.14-22.93,38.8a31.92,31.92,0,0,1-30.36,16.71h0a31.93,31.93,0,0,1-29.36-27.12L434.76,291l30.16-7.46L477.24,351l7.56-21.45Z" fill="#b78876"/><path d="M465.19,289.78l-1-15.12s-4.27-33.94-4.27-37.25c0-3.83-1.83-4.75-3.24-4.66-2.2.15-3.76,2.85-3.87,6.14,0,1.13.11,19.07.11,19.07a41.34,41.34,0,0,0-3.48-4.84c-2.65-3.36-8.88-5.28-15.27-5.08s-8.16.83-8.2,3.32a3.16,3.16,0,0,0,1.26,2.41,6.23,6.23,0,0,0,4.21,1.45c10.24-.18,13,5.29,13,5.29l.13,2s-6.22-4.45-11.18-2.57a6.05,6.05,0,0,0-2,1.22,8,8,0,0,0-6.94,11.95c.66,1.18,1.89,2.28,3.22,2a4.26,4.26,0,0,0,1.81-1.1,6,6,0,0,1,.91-.68l1.15,5.49s3.23,12.2,4,17.67" fill="#b78876"/><path d="M462.25,288.55c-1.88.51-3.81-.87-4.82-2.53s-1.44-3.62-2.33-5.35c-2.67-5.18-9.12-7.66-11.53-13-.34-.74-.52-1.76.13-2.24s1.45-.1,2.11.27l16.88,9.35" fill="#b78876"/><path d="M462.69,275.09a7.28,7.28,0,0,0-1.72-1.2c-1.14-.71-2.82-1.7-4.89-2.91l-7.33-4.19-2.13-1.2c-.7-.33-1.47-1.07-2.78-.79a1.62,1.62,0,0,0-1.11,1.45,3.28,3.28,0,0,0,.28,1.55,12.85,12.85,0,0,0,1.45,2.45c2.34,3,5.36,4.94,7.54,7.16a14.18,14.18,0,0,1,2.67,3.43c.64,1.2,1.05,2.45,1.54,3.57a6.82,6.82,0,0,0,3.91,4.22,2.49,2.49,0,0,0,2.13-.08,5.64,5.64,0,0,1-2-.33,6.55,6.55,0,0,1-3.34-4.1,39.23,39.23,0,0,0-1.45-3.7,15,15,0,0,0-2.76-3.73c-2.24-2.33-5.23-4.29-7.38-7.11a11.66,11.66,0,0,1-1.32-2.2c-.32-.73-.28-1.48.15-1.55s1.22.27,1.94.68l2.15,1.16,7.44,4c2.13,1.12,3.86,2,5.06,2.6A8.12,8.12,0,0,0,462.69,275.09Z" fill="#aa6550"/><path d="M444.81,262.58a8,8,0,0,0-1.17-3.45,6.2,6.2,0,0,0-3.12-2.26,15.86,15.86,0,0,0-4.85-.7,25.5,25.5,0,0,1-5.06-.44,8,8,0,0,1-3.76-1.88,3.13,3.13,0,0,1-1-2.65,2,2,0,0,1,.33-1c.07,0-.05.37-.06,1a3,3,0,0,0,1.08,2.27,8.11,8.11,0,0,0,3.56,1.61,27.06,27.06,0,0,0,4.94.37,15.41,15.41,0,0,1,5.05.79,6.42,6.42,0,0,1,3.31,2.61,5.6,5.6,0,0,1,.87,2.69C445,262.23,444.85,262.59,444.81,262.58Z" fill="#aa6550"/><path d="M452.87,237.62a19.69,19.69,0,0,1,.05,3.57c0,2.44-.05,5.36-.09,8.58s0,6.14,0,8.58a21.13,21.13,0,0,1-.08,3.57,16.46,16.46,0,0,1-.43-3.55c-.15-2.2-.25-5.24-.24-8.6s.14-6.41.3-8.6A17.12,17.12,0,0,1,452.87,237.62Z" fill="#aa6550"/><path d="M440.76,266.62a4.45,4.45,0,0,1-1-.4,3.27,3.27,0,0,0-2.75-.13,1.77,1.77,0,0,0-.93,1.49,9.05,9.05,0,0,0,.17,2.31,4,4,0,0,1-.43,2.81,3.42,3.42,0,0,1-2.73,1.42,3.85,3.85,0,0,1-2.81-1.22,4.82,4.82,0,0,1-1.32-2.49,16.06,16.06,0,0,1,.07-4.59,9.36,9.36,0,0,1,.91-2.95c.37-.64.71-.9.73-.87a9,9,0,0,1-.48,1,11.07,11.07,0,0,0-.66,2.9,16.81,16.81,0,0,0,.07,4.4,3.84,3.84,0,0,0,3.47,3.12,2.73,2.73,0,0,0,2.17-1.1,3.39,3.39,0,0,0,.36-2.34,9.38,9.38,0,0,1-.1-2.48,2.32,2.32,0,0,1,1.29-1.86,3.47,3.47,0,0,1,3.09.34C440.48,266.33,440.78,266.58,440.76,266.62Z" fill="#aa6550"/><path d="M430.54,272.36s.13.37-.1,1a3.12,3.12,0,0,1-2.08,1.84,4.15,4.15,0,0,1-3.93-1.21,6.76,6.76,0,0,1-1.75-4.72,8.26,8.26,0,0,1,1.53-4.79,7.94,7.94,0,0,1,3.2-2.56,7.35,7.35,0,0,1,2.68-.63c.65,0,1,.05,1,.1a12.43,12.43,0,0,0-3.46,1,7.72,7.72,0,0,0-2.88,2.49,7.84,7.84,0,0,0-1.36,4.41,6.3,6.3,0,0,0,1.51,4.26,3.67,3.67,0,0,0,3.34,1.18,3,3,0,0,0,1.95-1.46C430.47,272.72,430.48,272.35,430.54,272.36Z" fill="#aa6550"/><path d="M442.88,284.35a2.84,2.84,0,0,1,1.72,0,6.75,6.75,0,0,1,3.73,2.26l-.6.17a18.52,18.52,0,0,1,.39-2.39c1-4.61,3.58-7.62,3.7-7.48s-2,3.2-3,7.64c-.18.8-.31,1.58-.41,2.31l-.1.8-.5-.62a7,7,0,0,0-3.32-2.28C443.51,284.46,442.88,284.44,442.88,284.35Z" fill="#aa6550"/><path d="M442.55,253.83c.17.08-.52,1.37-2.1,2s-3,.32-2.93.14,1.29-.18,2.65-.79S442.39,253.7,442.55,253.83Z" fill="#aa6550"/><path d="M633.93,361.76l52.82-13s-3.36-8.15-12.67-35.78c-8.6-25.53-16-34.28-16-34.28s-27-14.88-42.82-23.49L604.13,243.5v1.18l-10.3,4.53L577.5,256.4l-15.68-5.76-6.57-2.41-2.32,4.57-28,7.7s-20,7.26-32.82,36.61c-15.84,36.17-17,42.47-17,42.47l41.37,24-6.87,80.78,126.54.08-2.5-61.9Z" fill="#d64864"/><path d="M626.66,298.06a4.85,4.85,0,0,1,.14-1.3,17,17,0,0,1,1-3.43,21.6,21.6,0,0,1,7.2-9.21,26.15,26.15,0,0,1,14.36-4.87,5.72,5.72,0,0,1,1.3,0c0,.1-1.86.1-4.78.68a26.77,26.77,0,0,0-10.57,4.56,22.36,22.36,0,0,0-7.17,8.94A33.33,33.33,0,0,0,626.66,298.06Z" fill="#263238"/><path d="M686.75,348.77l-.27.09-.82.22-3.13.8L671,352.74,632.82,362l-.23.05-.27.07-.05-.27c-2.55-15.06-4.86-28.67-6.53-38.56-.81-4.91-1.46-8.89-1.92-11.69-.21-1.35-.38-2.42-.5-3.18-.05-.34-.08-.62-.12-.83a1.27,1.27,0,0,1,0-.29,1.08,1.08,0,0,1,.08.28c0,.21.1.48.16.82.15.76.34,1.82.6,3.16.49,2.8,1.2,6.77,2.08,11.66,1.71,9.89,4.07,23.49,6.68,38.54l-.31-.21.22-.06,38.2-9.07,11.59-2.69,3.16-.71.82-.17A.92.92,0,0,1,686.75,348.77Z" fill="#263238"/><path d="M552.93,252.8a3.38,3.38,0,0,1,.19.81c.1.61.23,1.37.39,2.29l0-.07A82.36,82.36,0,0,0,565,267.38q.78.63,1.56,1.23c.5.4,1.06.77,1.48.56s.65-.89,1-1.4l.9-1.56c1.19-2,2.33-3.8,3.32-5.27s1.85-2.62,2.47-3.39c.31-.39.56-.68.74-.87s.27-.29.29-.28a13.23,13.23,0,0,1-.86,1.27c-.57.81-1.38,2-2.33,3.48s-2,3.28-3.22,5.3c-.28.51-.58,1-.88,1.56l-.44.82a1.82,1.82,0,0,1-.73.79,1.29,1.29,0,0,1-1.15,0,4.14,4.14,0,0,1-.86-.57c-.53-.4-1-.81-1.58-1.24A69.69,69.69,0,0,1,553.26,256l0,0v0c-.1-.93-.19-1.7-.26-2.31A3.26,3.26,0,0,1,552.93,252.8Z" fill="#263238"/><path d="M613.5,254.51a2,2,0,0,1-.41.28l-1.24.71-4.55,2.58c-3.84,2.2-9.1,5.3-14.78,8.93-2.44,1.57-4.77,3.1-6.88,4.52l-.22.15-.13-.23c-2.35-4.11-4.28-7.68-5.55-10.25-.64-1.29-1.12-2.32-1.41-3.05a6.3,6.3,0,0,1-.41-1.13,7.59,7.59,0,0,1,.55,1.07c.34.7.87,1.71,1.54,3,1.35,2.53,3.32,6.06,5.7,10.15l-.34-.08c2.1-1.44,4.42-3,6.87-4.56,5.69-3.63,11-6.69,14.88-8.81,1.94-1.06,3.53-1.88,4.64-2.44l1.28-.63A1.68,1.68,0,0,1,613.5,254.51Z" fill="#263238"/><path d="M584.61,312.69a3.44,3.44,0,0,1-.74,0l-2.11-.19-7.73-.83-.18,0v-.19c.19-5.16.44-11.89.71-19.25.36-8.22.69-15.66.93-21.12.14-2.65.26-4.82.34-6.4q.07-1.07.12-1.74a3,3,0,0,1,.08-.61,2.4,2.4,0,0,1,0,.61c0,.46,0,1,0,1.75,0,1.58-.11,3.75-.18,6.4-.2,5.47-.47,12.91-.78,21.13-.32,7.36-.61,14.08-.84,19.25l-.17-.2,7.7,1,2.1.3A3.23,3.23,0,0,1,584.61,312.69Z" fill="#263238"/><path d="M584,280.71s.08,0,.22,0a2.25,2.25,0,0,1,.6.22,3.73,3.73,0,0,1,1.57,1.74,4,4,0,0,1,0,3.48,3.26,3.26,0,0,1-1.54,1.46,4.27,4.27,0,0,1-2.24.36,4.33,4.33,0,0,1-2.11-.85,3.23,3.23,0,0,1-1.18-1.77A4,4,0,0,1,580,282a3.78,3.78,0,0,1,1.92-1.35,2.48,2.48,0,0,1,.63-.08.6.6,0,0,1,.23,0c0,.06-.31.07-.8.26a3.81,3.81,0,0,0-1.68,1.37,3.71,3.71,0,0,0-.6,3,3.51,3.51,0,0,0,6.19.7,3.75,3.75,0,0,0,.1-3.1,3.87,3.87,0,0,0-1.34-1.71C584.23,280.84,583.94,280.77,584,280.71Z" fill="#263238"/><path d="M583.26,297.63a.6.6,0,0,1,.22,0,2.25,2.25,0,0,1,.6.22,3.73,3.73,0,0,1,1.57,1.74,4,4,0,0,1,0,3.48,3.26,3.26,0,0,1-1.54,1.46,4.29,4.29,0,0,1-2.25.36,4.34,4.34,0,0,1-2.1-.85,3.23,3.23,0,0,1-1.18-1.77,4,4,0,0,1,.76-3.39,3.69,3.69,0,0,1,1.92-1.34,2.17,2.17,0,0,1,.63-.09.65.65,0,0,1,.23,0c0,.06-.31.07-.8.26a3.76,3.76,0,0,0-1.68,1.37,3.71,3.71,0,0,0-.6,3,3.51,3.51,0,0,0,6.19.7,3.75,3.75,0,0,0,.1-3.1,3.87,3.87,0,0,0-1.34-1.71C583.54,297.76,583.24,297.69,583.26,297.63Z" fill="#263238"/><g opacity=".3"><path d="M577.91,256.67c-.19.38,2.58,11.42,4.61,18.62a4.44,4.44,0,0,0,7.44,1.9l20.89-21.27L585.5,271.33Z"/></g><g opacity=".3"><path d="M554.32,257.09s4.85,16.87,14.21,18.28c0,0,3,.11,3.73-2.33s4.48-16.64,4.48-16.64l-8.66,13A41.4,41.4,0,0,1,554.32,257.09Z"/></g><path d="M604.12,244.68l.15-66.83A35.74,35.74,0,0,0,567.66,142l-.55,0a37.43,37.43,0,0,0-34.32,37.41c.05,17.07.32,35.59,1.18,44.63,1.83,19.23,21.33,20.63,21.33,20.63s0,1.35,0,3.52l22.25,8.17Z" fill="#b78876"/><path d="M555.25,244.43s12.24,0,24.5-9.21c0,0-4.79,14.35-24.14,14.2Z" fill="#aa6550"/><path d="M539.27,191.13a2.76,2.76,0,0,0,2.88,2.56,2.65,2.65,0,0,0,2.63-2.72,2.76,2.76,0,0,0-2.88-2.55A2.64,2.64,0,0,0,539.27,191.13Z" fill="#263238"/><path d="M537.7,187.16c.37.33,2.33-1.38,5.29-1.62s5.25,1.06,5.54.67c.14-.17-.26-.79-1.26-1.4a7.56,7.56,0,0,0-4.47-1,7.24,7.24,0,0,0-4.17,1.74C537.78,186.34,537.52,187,537.7,187.16Z" fill="#263238"/><path d="M567.41,189.23a2.76,2.76,0,0,0,2.88,2.56,2.65,2.65,0,0,0,2.63-2.72,2.76,2.76,0,0,0-2.88-2.55A2.64,2.64,0,0,0,567.41,189.23Z" fill="#263238"/><path d="M566.82,185.31c.37.33,2.33-1.39,5.28-1.62s5.25,1.06,5.54.67c.15-.17-.25-.79-1.26-1.4a7.52,7.52,0,0,0-4.47-1,7.2,7.2,0,0,0-4.16,1.73C566.9,184.49,566.64,185.16,566.82,185.31Z" fill="#263238"/><path d="M557.9,208.13c0-.17-1.86-.34-4.87-.47-.76,0-1.49-.11-1.66-.61a3.83,3.83,0,0,1,.32-2.28c.56-1.89,1.14-3.87,1.76-5.94,2.42-8.44,4.11-15.36,3.77-15.46s-2.59,6.68-5,15.12q-.87,3.12-1.66,6a4.42,4.42,0,0,0-.15,3,1.89,1.89,0,0,0,1.34,1,4.9,4.9,0,0,0,1.29.07C556,208.44,557.91,208.3,557.9,208.13Z" fill="#263238"/><path d="M566.78,209.45c-.49,0-.23,3.22-2.79,5.73s-6,2.44-6,2.89c0,.2.81.56,2.26.48a8.06,8.06,0,0,0,5-2.23,7,7,0,0,0,2.13-4.79C567.42,210.18,567,209.42,566.78,209.45Z" fill="#263238"/><path d="M565.1,173.78c.36.78,3.28.15,6.78.28s6.39.85,6.79.09c.18-.36-.37-1.08-1.57-1.76a11.18,11.18,0,0,0-5.14-1.34,11.46,11.46,0,0,0-5.2,1C565.53,172.72,564.94,173.41,565.1,173.78Z" fill="#263238"/><path d="M538.08,178.51c.58.63,2.56-.24,5-.47s4.56.08,5-.67c.18-.36-.2-1-1.16-1.56a7.25,7.25,0,0,0-8,.92C538.05,177.49,537.83,178.2,538.08,178.51Z" fill="#263238"/><path d="M581.63,158.48l.11.07a15.18,15.18,0,0,1,6.43,9.32c0,.14.06.27.09.39,1.21,5.43,1.53,11,2.79,16.44s1,9.55,6.45,10.77a7.23,7.23,0,0,0,7.56-3.07,4.68,4.68,0,0,0,.47-2.57c-.07-13.34,2.62-18.52,1.44-32.38a11.73,11.73,0,0,0-5.63-9.11c-3.08-1.84-6.8-3.7-9.9-1.91s-6.77,8.18-9.06,10.95" fill="#263238"/><path d="M598.5,187.09c.32-.16,12.9-5,13.57,8.19s-12.72,11.14-12.76,10.77S598.5,187.09,598.5,187.09Z" fill="#b78876"/><path d="M603.09,200.84s.24.15.63.31a2.28,2.28,0,0,0,1.72-.05c1.37-.58,2.43-2.85,2.38-5.24a7.64,7.64,0,0,0-.81-3.25,2.67,2.67,0,0,0-1.82-1.68,1.18,1.18,0,0,0-1.33.7c-.15.38-.06.64-.13.66s-.29-.2-.21-.75a1.49,1.49,0,0,1,.47-.86,1.77,1.77,0,0,1,1.26-.4,3.23,3.23,0,0,1,2.5,1.93,7.72,7.72,0,0,1,1,3.63c0,2.67-1.19,5.22-3.07,5.87a2.47,2.47,0,0,1-2.12-.24C603.13,201.16,603,200.87,603.09,200.84Z" fill="#aa6550"/><path d="M592.06,148.43c2.8-5.53-6.7-12.35-13.36-13.86s-15,2.36-21.24,5c-4,1.69-7.88,3.91-12.18,4.09-2.89.12-5.72-.7-8.52-1.43a21.35,21.35,0,0,0-8.55-1c-2.86.44-5.69,2.21-6.57,5s1,6.28,3.89,6.44c-3.81-1.7-8.86,1.36-9.11,5.52s4.39,7.82,8.37,6.59c-2-1.26-4.66,1.32-4.23,3.64s2.68,3.84,4.91,4.6c5.68,2,12,.66,17.54-1.72s10.54-5.8,16-8.31,14.58-7,20.4-5.46c4.28,1.12,7.59,5.89,9.85,4.59a8.07,8.07,0,0,0,3.68-6.26,23.46,23.46,0,0,0-.88-7.47" fill="#263238"/><path d="M523.91,152.47c.1-.07.76.92,2.3,2.34a18.2,18.2,0,0,0,7.7,4.1,16.72,16.72,0,0,0,12.5-1.54c4.31-2.38,7.81-6.71,11.9-10.85s9-7.43,14.2-8.33,10.07.58,13,3.32a11.47,11.47,0,0,1,3.68,8.25,8.94,8.94,0,0,1-.36,2.47c-.2.54-.32.8-.37.79a20.25,20.25,0,0,0,.23-3.24,11.38,11.38,0,0,0-3.8-7.59c-2.73-2.43-7.32-3.74-12.11-2.82s-9.51,4-13.5,8.07-7.62,8.5-12.24,11a17.46,17.46,0,0,1-13.33,1.38,17.67,17.67,0,0,1-7.81-4.62,12.66,12.66,0,0,1-1.54-1.94C524,152.76,523.87,152.5,523.91,152.47Z" fill="#455a64"/><path d="M601.8,186.24s-.6-.31-1.18-1.31a8.86,8.86,0,0,1-1-4.72c-.06-4.26,3.31-9.12,3.3-15a13.2,13.2,0,0,0-2.1-7.73,10.1,10.1,0,0,0-5.24-3.82,8.56,8.56,0,0,0-4.44-.23c-1.05.25-1.59.54-1.65.44s.43-.5,1.5-.93a8.22,8.22,0,0,1,4.84-.17,10.65,10.65,0,0,1,6,4,14,14,0,0,1,2.43,8.45,24,24,0,0,1-1.85,8.5,25.06,25.06,0,0,0-1.84,6.55A10.21,10.21,0,0,0,601.8,186.24Z" fill="#455a64"/><path d="M682.13,350l18.65,44.59a28.34,28.34,0,0,1-1.64,25.17h0a28.34,28.34,0,0,1-28.22,13.85l-65.44-6.35,1.21-25.86,48.39-7.62-13.42-33.93Z" fill="#b78876"/><path d="M607.59,401.61s-10.56-2.33-15.09-3.26c-1.47-.31-2.76-1.13-4.21-1.5-7.08-1.84-15.75-6.41-17.72-8.33-3.42-3.35-5.94,1.81-2.53,6a24.14,24.14,0,0,0,6,5.69L559.59,404a3.1,3.1,0,0,0-1.82,1.33L546.61,423a3.51,3.51,0,0,0,.41,4.65,1.75,1.75,0,0,0,2.37.18l-1.44,2.4c-2.37,4,3.45,7.86,6,4a.71.71,0,0,0,.1-.14l2.79,3.78s1.33,3.69,5.6,1.32c3.54-2,15.42-10.72,15.42-10.72s33.55.76,35.23-4.19Z" fill="#b78876"/><path d="M554,434.23c.17.08,1.12-1.6,2.81-4.21s4.24-6.15,6.72-10.17c1.32-1.9,2.75-3.79,4-5.27a3.67,3.67,0,0,1,2.3-1.06l2.53-.37c3.09-.47,5-.84,5-1s-2-.1-5.08.15l-2.55.22a4.68,4.68,0,0,0-3,1.26,57.63,57.63,0,0,0-4.21,5.39c-2.53,4.1-4.91,7.64-6.45,10.41S553.87,434.17,554,434.23Z" fill="#aa6550"/><path d="M549.39,427.79c.4.28,4.17-6.25,9.57-13.64,1.35-1.83,2.62-3.73,4.19-4.49a36.46,36.46,0,0,1,4.92-1.71,20.54,20.54,0,0,1,3.44-.67c.82-.06,1.27,0,1.3-.07s-.42-.32-1.3-.4a13.44,13.44,0,0,0-3.64.3,28.86,28.86,0,0,0-5.18,1.52c-2.1,1-3.33,3-4.71,4.79a93.59,93.59,0,0,0-6.41,10C550.08,426,549.27,427.74,549.39,427.79Z" fill="#aa6550"/><path d="M580.45,420.3c0-.16-1.73-.12-4.47.09l-2.25.19a7.11,7.11,0,0,0-2.69.57,6.8,6.8,0,0,0-2.31,2l-2,2.31c-5.54,6.34-9.82,11.65-9.56,11.86s4.94-4.73,10.46-11l2-2.32a6,6,0,0,1,1.94-1.77,6.54,6.54,0,0,1,2.31-.57l2.23-.34C578.8,420.82,580.47,420.47,580.45,420.3Z" fill="#aa6550"/><path d="M588.83,399.63c0-.5-4.64-.73-10.26-.12s-10.13,1.8-10,2.17,4.55-.44,10.16-1l7.16-.71A14.32,14.32,0,0,0,588.83,399.63Z" fill="#aa6550"/></g><g><path d="M48.9,444.39l-11.72-124a16.87,16.87,0,0,1,16.45-18.45l130.44-2.63a16.88,16.88,0,0,1,17.15,15.51l10,129.54Z" fill="#455a64"/><path d="M67.4,444.36a2.79,2.79,0,0,1-.07-.43c0-.32-.08-.74-.15-1.29-.12-1.16-.3-2.83-.53-5-.43-4.33-1.06-10.55-1.84-18.23-1.51-15.43-3.58-36.7-5.88-60.19-1.75-18.3-3.37-35.25-4.68-49v0h0c0-.69,0-1.37,0-2.05a8.62,8.62,0,0,1,.22-2,6.08,6.08,0,0,1,5.62-4.52l3.44-.06L75,301.37l7.31-.09h1.92c.43,0,.66,0,.66,0s-.22,0-.66,0l-1.91.07-7.31.2-11.43.28-3.43.09a5.68,5.68,0,0,0-3.25,1.21,5.75,5.75,0,0,0-2,3,8.19,8.19,0,0,0-.19,1.94c0,.66,0,1.34,0,2v0c1.34,13.79,3,30.74,4.78,49,2.24,23.5,4.26,44.77,5.73,60.2.71,7.69,1.28,13.92,1.68,18.25.18,2.14.33,3.81.43,5q.06.83.09,1.29A2.91,2.91,0,0,1,67.4,444.36Z" fill="#263238"/><path d="M132.39,193.6c1.79-3.8-.12-8.66-3.63-10.95s-8.16-2.32-12.12-.93a19.68,19.68,0,0,0-12.83,16.77,14.35,14.35,0,0,0-7.7,5.18c-5.48,6.93-4.64,17.87,1.46,24.27s16.54,7.89,24.45,3.94,13-12.77,12.9-21.61" fill="#263238"/><path d="M138.17,197.6a3.67,3.67,0,0,0-1.73-4,5.67,5.67,0,0,0-4.6-.34,13,13,0,0,0-4.07,2.4,20.23,20.23,0,0,0-4.73,5.08,10.46,10.46,0,0,0-1.62,6.65,7.06,7.06,0,0,0,3.78,5.51,5.39,5.39,0,0,0,6.34-1.27" fill="#d64864"/><path d="M144,176.59c-.14-4.33,3.85-7.69,7.87-9.3s8.5-2.22,12.08-4.66c3.17-2.15,5.3-5.5,8-8.25a26.67,26.67,0,0,1,44.9,12c1.57,6.16.55,13.46-4.29,17.58-5.62,4.78-14,3.76-21.22,2.31s-15.43-2.86-21.44,1.41c-3.63,2.58-5.7,6.75-7.91,10.61s-5,7.82-9.18,9.28-9.92-1-10.11-5.45" fill="#263238"/><path d="M144.29,179c.5,3.63-2.11,6.89-4.72,9.47s-5.54,5.3-6,8.94c-.52,4.24,2.6,8.4,1.72,12.59-.56,2.65-2.61,4.71-3.85,7.12a15.13,15.13,0,0,0-.72,11.13c1.09,3.65,2.85,11.81,5.4,14.63,7.06,7.83,18.28,14.55,28.56,16.87s20.95,2.27,31.47,1.58c8.61-.57,18.51-.22,25.63-12.1,3.69-6.15,5.49-14.32,7.44-21.22,1.67-5.95,3.11-12.32,1.32-18.23-1.05-3.44-3.14-6.49-4.17-9.94-1.29-4.31-.85-8.92-1.38-13.39a30.72,30.72,0,0,0-43.82-24.06" fill="#263238"/><path d="M220.91,193.49c-.86-12.35-9.15-27.46-21.45-26.07l-38.39,10a7.24,7.24,0,0,0-6.43,7.39l4.74,92.7-.26.05s8.88,26.11,34.25,18c5-1.61,7.31-7.13,8.28-12.8l.26,0c0-.68,0-1.3,0-1.94A60.49,60.49,0,0,0,202,268.1h0c0-7.48,0-10.55,0-10.48s15.77-2.73,18.91-23.35C222.5,224,221.87,207.22,220.91,193.49Z" fill="#ffbe9d"/><path d="M215.73,207.54a2.63,2.63,0,0,1-2.53,2.68,2.51,2.51,0,0,1-2.73-2.36,2.63,2.63,0,0,1,2.52-2.68A2.52,2.52,0,0,1,215.73,207.54Z" fill="#263238"/><path d="M217.33,202.26c-.32.34-2.34-1.13-5.18-1.1s-4.92,1.46-5.23,1.12c-.15-.15.18-.78,1.08-1.45a7.36,7.36,0,0,1,4.19-1.32,7,7,0,0,1,4.12,1.3C217.19,201.48,217.49,202.1,217.33,202.26Z" fill="#263238"/><path d="M188.58,207.87a2.64,2.64,0,0,1-2.53,2.68,2.51,2.51,0,0,1-2.73-2.36,2.64,2.64,0,0,1,2.52-2.69A2.52,2.52,0,0,1,188.58,207.87Z" fill="#263238"/><path d="M189.39,203c-.33.34-2.34-1.12-5.18-1.1s-4.92,1.47-5.23,1.12c-.15-.15.18-.78,1.08-1.45a7.32,7.32,0,0,1,4.18-1.32,6.91,6.91,0,0,1,4.13,1.31C189.25,202.2,189.55,202.82,189.39,203Z" fill="#263238"/><path d="M199.85,224c0-.16,1.75-.48,4.61-.87.73-.08,1.41-.22,1.53-.72a3.65,3.65,0,0,0-.5-2.15l-2.18-5.51c-3-7.85-5.24-14.31-4.92-14.43s3,6.15,6.07,14q1.09,2.9,2.09,5.55a4.2,4.2,0,0,1,.4,2.84,1.8,1.8,0,0,1-1.19,1.07,4.51,4.51,0,0,1-1.23.18C201.65,224.13,199.86,224.15,199.85,224Z" fill="#263238"/><path d="M202,257.62a52.36,52.36,0,0,1-27.63-7.17s6.78,14.1,27.39,12Z" fill="#eb996e"/><path d="M198.7,230.85a5.11,5.11,0,0,0-4.61-1.87,4.67,4.67,0,0,0-3.22,1.75,3,3,0,0,0-.2,3.39,3.43,3.43,0,0,0,3.73.92,10.88,10.88,0,0,0,3.62-2.19,3.11,3.11,0,0,0,.81-.85,1,1,0,0,0,0-1.06" fill="#eb996e"/><path d="M191.5,226c.46,0,.49,3.06,3.14,5.23s5.94,1.81,6,2.24c0,.2-.73.61-2.12.65a7.66,7.66,0,0,1-5-1.69,6.72,6.72,0,0,1-2.44-4.39C191,226.76,191.29,226,191.5,226Z" fill="#263238"/><path d="M190.63,198c-.27.78-3.11.43-6.44.85s-6,1.36-6.48.67c-.2-.34.27-1.07,1.35-1.82a11.36,11.36,0,0,1,9.84-1.16C190.13,197,190.75,197.62,190.63,198Z" fill="#263238"/><path d="M216.23,194c-.5.65-2.46,0-4.81,0s-4.35.47-4.81-.21c-.21-.32.1-1,1-1.59a6.68,6.68,0,0,1,3.91-1.08,6.61,6.61,0,0,1,3.84,1.27C216.17,193.06,216.45,193.72,216.23,194Z" fill="#263238"/><path d="M147,245.24a18.29,18.29,0,0,0,21.67-20.33c-.67-5-3.42-10.19-1.69-15,2.29-6.34,11.16-8.33,13.49-14.66,1.35-3.67.1-8,1.63-11.57,1.45-3.39,5-5.36,8.46-6.62s7.17-2.16,10.07-4.43,4.69-6.55,2.8-9.71a195.07,195.07,0,0,0-45,11.14c-3.36,1.27-6.88,2.8-8.86,5.79-2.09,3.18-2,7.26-1.77,11q1.42,27.75,2.84,55.48" fill="#263238"/><path d="M148.32,252.32a1.42,1.42,0,0,1-.33-.21l-.92-.7c-.8-.62-2-1.54-3.43-2.81a35.83,35.83,0,0,1-4.86-5.07,19,19,0,0,1-3.89-8.47,12.91,12.91,0,0,1,2.6-10.85,42.9,42.9,0,0,1,4.78-4.11A11.14,11.14,0,0,0,146,215c1.51-4.2.81-9.06,1.37-14a28,28,0,0,1,5.78-14.23,19.42,19.42,0,0,1,6.08-5,38.09,38.09,0,0,1,7.2-2.46,16.81,16.81,0,0,0,6.31-3.15A24.66,24.66,0,0,0,177.3,171c2.57-3.69,4.47-7.61,6.92-10.89a23.24,23.24,0,0,1,4-4.33,15.36,15.36,0,0,1,4.8-2.64,10.25,10.25,0,0,1,9.15.87,8.41,8.41,0,0,1,3.28,6.15,6.19,6.19,0,0,1-1.22,4.25,3.49,3.49,0,0,1-.84.8c-.21.16-.32.24-.32.22s.08-.11.26-.29a4.46,4.46,0,0,0,.75-.84,6.1,6.1,0,0,0,1-4.12,8.1,8.1,0,0,0-3.22-5.76,9.79,9.79,0,0,0-8.66-.68,15,15,0,0,0-4.56,2.58,23.23,23.23,0,0,0-3.88,4.23c-2.37,3.23-4.23,7.14-6.83,10.93a25.64,25.64,0,0,1-4.71,5.27,17.75,17.75,0,0,1-6.6,3.33,37,37,0,0,0-7,2.41,18.27,18.27,0,0,0-5.8,4.8,27.19,27.19,0,0,0-5.6,13.75c-.57,4.81.14,9.74-1.46,14.22a12,12,0,0,1-4,5.45,41.62,41.62,0,0,0-4.72,4A12.27,12.27,0,0,0,135.52,235a18.63,18.63,0,0,0,3.66,8.26,38.19,38.19,0,0,0,4.7,5.12c1.41,1.3,2.54,2.27,3.31,2.93A8.74,8.74,0,0,1,148.32,252.32Z" fill="#455a64"/><path d="M98,214.05a1.94,1.94,0,0,0-.5.29,7.35,7.35,0,0,0-1.2,1.14,9.53,9.53,0,0,0-2.12,5.67,15.65,15.65,0,0,0,2.55,8.61,20.2,20.2,0,0,0,8,7.55,16.22,16.22,0,0,0,10.88,1.38,14,14,0,0,0,4.47-1.91,13.44,13.44,0,0,0,3.08-2.9,12.14,12.14,0,0,0,2.42-5.56,8.93,8.93,0,0,0,.1-1.65,2.09,2.09,0,0,0-.06-.57c-.07,0,0,.79-.3,2.18a12.72,12.72,0,0,1-2.53,5.31,12.78,12.78,0,0,1-7.32,4.49,15.71,15.71,0,0,1-10.43-1.37,20,20,0,0,1-7.77-7.28,15.39,15.39,0,0,1-2.6-8.27,9.55,9.55,0,0,1,1.84-5.51A18.17,18.17,0,0,1,98,214.05Z" fill="#263238"/><path d="M149.68,219.56a3.78,3.78,0,0,0,.69.32c.46.18,1.15.44,2,.72a24.79,24.79,0,0,0,7.9,1.15,15.9,15.9,0,0,0,10.85-4.46,12.88,12.88,0,0,0,3.34-6.2c.63-2.35,1-4.86,2-7.12a15.09,15.09,0,0,1,4.79-5.44,42.47,42.47,0,0,1,5.94-3.52c4-2,7.56-4,9.77-6.67a11.79,11.79,0,0,0,3-7.36,8,8,0,0,0-.31-2.16,3,3,0,0,0-.28-.7,12.13,12.13,0,0,1,.32,2.86,11.7,11.7,0,0,1-3.06,7.05c-2.18,2.52-5.71,4.47-9.68,6.43a41.38,41.38,0,0,0-6.06,3.54,15.59,15.59,0,0,0-5,5.68c-1.13,2.4-1.44,4.94-2,7.25a12.43,12.43,0,0,1-3.15,5.93,15.56,15.56,0,0,1-10.42,4.41,25.91,25.91,0,0,1-7.81-.93C150.68,219.87,149.7,219.5,149.68,219.56Z" fill="#263238"/><path fill="#263238" d="M212.55 280.28L200.45 271.12 154.88 268.2 153.05 274.31 167.87 366.82 157.98 444.36 221.55 444.36 212.55 280.28z"/><path d="M202.69,282.15l1.41-13.23a4.19,4.19,0,0,0-3.79-4.62l-42-3.79a2,2,0,0,0-2.16,1.91l-.47,15.74,12.15,20.61,12.49,4h15.27l8.78-9.38Z" fill="#263238"/><path d="M161.92,273.11s.6-.06,1.67-.17a30.56,30.56,0,0,1,4.58-.08,44.57,44.57,0,0,1,6.71,1c2.51.53,5.23,1.26,8.12,2a52.09,52.09,0,0,0,8.26,1.48,21.36,21.36,0,0,0,6.84-.47,14.42,14.42,0,0,0,4.28-1.77,11.79,11.79,0,0,0,1-.74c.22-.19.33-.29.32-.31s-.51.34-1.45.87a15.65,15.65,0,0,1-4.25,1.59,21.49,21.49,0,0,1-6.72.34,57.39,57.39,0,0,1-8.18-1.49c-2.88-.7-5.61-1.43-8.14-1.93a41.76,41.76,0,0,0-6.8-.87,25.23,25.23,0,0,0-4.61.25c-.54.09-1,.17-1.24.24S161.91,273.09,161.92,273.11Z" fill="#455a64"/><g opacity=".3"><path d="M201.69,275.19c1.12,3.09,1.15,6.91-1.12,9.28-1.86,1.93-4.84,2.41-7.47,1.89a23.8,23.8,0,0,1-7.29-3.28c-5.78-3.44-11.65-7-18.21-8.45a2.35,2.35,0,0,1-1.18-.49.79.79,0,0,1,0-1.14,1.06,1.06,0,0,1,.55-.15c5.8-.59,11.38,1.71,17.07,3s12.22,2.61,17.43-.46"/></g><path d="M193.68,263.88a3.79,3.79,0,0,1,1.43,1.37c.66,1.06.57,2.87.57,4.82-.1,3.91-.75,7-.6,7.07a6.58,6.58,0,0,0,.57-2,30.53,30.53,0,0,0,.56-5,23.23,23.23,0,0,0-.06-2.8,5,5,0,0,0-.72-2.23,2.92,2.92,0,0,0-1.19-1.05C193.9,263.84,193.68,263.85,193.68,263.88Z" fill="#455a64"/><path d="M182.59,275.37a61.18,61.18,0,0,1,.3-6.4,63.23,63.23,0,0,1,1.49-6.23,5.34,5.34,0,0,0-.86,1.7,20.84,20.84,0,0,0-1.15,4.46,20.46,20.46,0,0,0-.13,4.6A5.71,5.71,0,0,0,182.59,275.37Z" fill="#455a64"/><path d="M169.08,261.63a4.09,4.09,0,0,0-.8,1.55,11.08,11.08,0,0,0-.55,4.2,10.88,10.88,0,0,0,1.11,4.09,4,4,0,0,0,1,1.43,17.5,17.5,0,0,1-1.57-5.56A17.3,17.3,0,0,1,169.08,261.63Z" fill="#455a64"/><path d="M254.57,399.22s-5.65-72.51-8.6-86.11c-3.76-17.3-18.06-26.88-18.06-26.88l-5.85,134.1,11.42,16.94,13.81,5.31a14.37,14.37,0,0,0,9.89.15l13.29-4.63,1.12-25.31-11.22-3.25Z" fill="#d64864"/><path fill="#d64864" d="M214.89 444.67L213.34 344.22 210.49 279.51 203.66 273.55 227.91 286.23 233.63 305.04 238.73 359.54 229.13 423.44 235.74 444.47"/><path d="M234.43,396.4s.09-.27.23-.79l.57-2.29c.25-1,.54-2.21.82-3.64s.65-3,.94-4.85.65-3.78.93-5.92.54-4.42.8-6.82c.44-4.83.73-10.15.73-15.74s-.34-10.92-.79-15.74c-.27-2.41-.5-4.7-.83-6.82s-.62-4.12-1-5.92-.66-3.42-.95-4.85-.58-2.64-.84-3.63-.43-1.72-.58-2.29a4.76,4.76,0,0,0-.23-.78,4.92,4.92,0,0,0,.13.81c.12.57.28,1.34.49,2.3s.48,2.22.74,3.65.61,3.05.88,4.85.62,3.78.88,5.91.53,4.42.78,6.82c.43,4.81.72,10.11.75,15.69s-.28,10.88-.69,15.69c-.24,2.4-.45,4.69-.75,6.82s-.57,4.11-.87,5.91-.6,3.43-.86,4.86-.51,2.65-.73,3.65-.35,1.73-.47,2.31A3.65,3.65,0,0,0,234.43,396.4Z" fill="#263238"/><path d="M116.37,284.7a33.34,33.34,0,0,0-20.44,23.73c-7.93,35-21.5,81.47-21.71,96.47-.27,19.12,8.09,32.2,19,34.61,6.23,1.38,48.68.69,71.73.2a17.16,17.16,0,0,0,16.66-15h0a17.18,17.18,0,0,0-14.54-19.13l-46.69-6.87,8.67-48.45-8.58-67.11Z" fill="#d64864"/><path d="M163.13,326.91l-8.77-45.77a18.08,18.08,0,0,1,1.82-12.73l-.1-2.38L138,276l-17.51,7.16-.42,53.22L130.6,444.22l37.11.14-.07-48.15A280.06,280.06,0,0,0,163.13,326.91Z" fill="#d64864"/><path d="M129.56,345.33a2.06,2.06,0,0,0-.14.54c-.08.41-.18.92-.31,1.55l-1,5.72c-.86,4.91-2,11.56-3.3,18.92s-2.33,14-3.15,18.94c-.37,2.37-.68,4.31-.9,5.74-.09.64-.16,1.16-.22,1.57a2.28,2.28,0,0,0,0,.55,1.75,1.75,0,0,0,.14-.53c.09-.41.19-.93.32-1.55.26-1.43.62-3.36,1.06-5.72.88-4.84,2-11.52,3.31-18.92s2.37-14.08,3.14-18.93c.37-2.38.67-4.32.89-5.76.08-.63.15-1.15.2-1.57A3.24,3.24,0,0,0,129.56,345.33Z" fill="#263238"/><path d="M112,292.26a9.31,9.31,0,0,0,1.43.53,35.13,35.13,0,0,1,3.8,1.64,29.51,29.51,0,0,1,10.27,8.76,21.27,21.27,0,0,1,2,3.29,20.67,20.67,0,0,1,1.22,3.39,33.39,33.39,0,0,1,1,6c.15,1.74.18,3.16.19,4.14s0,1.53,0,1.53a6.11,6.11,0,0,0,.17-1.52,39.07,39.07,0,0,0,0-4.18,32.23,32.23,0,0,0-.92-6.14,21.28,21.28,0,0,0-1.22-3.48,22.15,22.15,0,0,0-2.06-3.38,28.54,28.54,0,0,0-10.54-8.78,26.2,26.2,0,0,0-3.9-1.5A8.15,8.15,0,0,0,112,292.26Z" fill="#263238"/><path d="M88.75,343.3c0,.14-.26.22-.53.18s-.48-.19-.45-.33.25-.23.53-.18S88.78,343.16,88.75,343.3Z" fill="#fafafa"/><path d="M92.59,344c0,.14-.48.17-1,.08s-.94-.3-.91-.44.47-.18,1-.08S92.62,343.84,92.59,344Z" fill="#fafafa"/><path d="M96.4,344.81c0,.14-.49.15-1,0s-.92-.33-.89-.47.48-.15,1,0S96.43,344.67,96.4,344.81Z" fill="#fafafa"/><path d="M100.17,345.78c0,.14-.49.14-1,0s-.91-.36-.87-.5.49-.14,1,0S100.21,345.64,100.17,345.78Z" fill="#fafafa"/><path d="M103.9,346.9c0,.14-.49.12-1,0s-.9-.4-.86-.54.5-.12,1,0S104,346.76,103.9,346.9Z" fill="#fafafa"/><path d="M107.59,348.16c0,.14-.5.1-1-.08s-.88-.43-.84-.57.5-.1,1,.08S107.64,348,107.59,348.16Z" fill="#fafafa"/><path d="M111.23,349.56c-.06.14-.51.08-1-.11s-.87-.47-.81-.61.5-.08,1,.12S111.28,349.43,111.23,349.56Z" fill="#fafafa"/><path d="M114.81,351.1c-.06.13-.51.06-1-.15s-.84-.5-.79-.63.51-.07,1,.15S114.87,351,114.81,351.1Z" fill="#fafafa"/><path d="M118.32,352.78c-.06.13-.5,0-1-.19s-.82-.54-.76-.67.51,0,1,.2S118.39,352.65,118.32,352.78Z" fill="#fafafa"/><path d="M121.78,354.59c-.07.13-.51,0-1-.23s-.8-.57-.73-.69.5,0,1,.23S121.84,354.46,121.78,354.59Z" fill="#fafafa"/><path d="M125.15,356.53c-.07.12-.51,0-1-.27s-.78-.59-.71-.72.51,0,1,.27S125.23,356.41,125.15,356.53Z" fill="#fafafa"/><path d="M127.66,358.09c-.08.12-.33.1-.57,0s-.35-.37-.28-.49.33-.1.56.05S127.73,358,127.66,358.09Z" fill="#fafafa"/><path d="M125.92,369.1c0,.14-.26.23-.53.19s-.48-.18-.46-.32.26-.23.53-.19S125.94,369,125.92,369.1Z" fill="#fafafa"/><path d="M129.8,369.55c0,.14-.46.21-1,.15s-1-.22-.94-.36.46-.21,1-.16S129.81,369.4,129.8,369.55Z" fill="#fafafa"/><path d="M133.69,369.88c0,.15-.46.23-1,.19s-1-.2-.95-.34.46-.23,1-.18S133.7,369.74,133.69,369.88Z" fill="#fafafa"/><path d="M137.58,370.11c0,.15-.44.24-1,.21s-1-.16-1-.31.46-.24,1-.21S137.59,370,137.58,370.11Z" fill="#fafafa"/><path d="M141.49,370.23c0,.15-.45.25-1,.24s-1-.14-1-.28.45-.25,1-.24S141.49,370.09,141.49,370.23Z" fill="#fafafa"/><path d="M145.39,370.25c0,.14-.44.26-1,.26s-1-.11-1-.26.43-.26,1-.26S145.39,370.1,145.39,370.25Z" fill="#fafafa"/><path d="M149.29,370.15c0,.14-.43.28-1,.29s-1-.08-1-.23.43-.27,1-.29S149.29,370,149.29,370.15Z" fill="#fafafa"/><path d="M153.19,370c0,.14-.42.28-1,.32s-1-.06-1-.21.42-.28,1-.31S153.18,369.81,153.19,370Z" fill="#fafafa"/><path d="M157.08,369.64c0,.14-.41.3-1,.34s-1,0-1-.17.41-.3,1-.35S157.07,369.5,157.08,369.64Z" fill="#fafafa"/><path d="M161,369.22c0,.14-.4.31-.94.37s-1,0-1-.15.41-.31.94-.37S160.94,369.08,161,369.22Z" fill="#fafafa"/><path d="M164.83,368.69c0,.15-.4.32-.93.4s-1,0-1-.12.39-.32.93-.39S164.81,368.55,164.83,368.69Z" fill="#fafafa"/><path d="M167.74,368.23c0,.14-.18.29-.45.34s-.51,0-.54-.18.18-.29.45-.34S167.72,368.08,167.74,368.23Z" fill="#fafafa"/><path d="M214.87,363.38c0,.14-.16.31-.43.37s-.51,0-.55-.15.16-.3.43-.36S214.84,363.24,214.87,363.38Z" fill="#fafafa"/><path d="M218.81,362.67c0,.14-.4.33-.94.42s-1,0-1-.1.39-.33.94-.42S218.79,362.52,218.81,362.67Z" fill="#fafafa"/><path d="M222.8,362.22c0,.14-.43.3-1,.35s-1,0-1-.16.42-.3,1-.36S222.79,362.07,222.8,362.22Z" fill="#fafafa"/><path d="M226.8,362c0,.14-.44.27-1,.29s-1-.09-1-.23.44-.27,1-.29S226.8,361.89,226.8,362Z" fill="#fafafa"/><path d="M230.81,362.11c0,.15-.46.25-1,.23s-1-.16-1-.3.45-.25,1-.22S230.82,362,230.81,362.11Z" fill="#fafafa"/><path d="M234.81,362.46c0,.14-.48.21-1,.16s-1-.22-1-.37.47-.21,1-.15S234.83,362.32,234.81,362.46Z" fill="#fafafa"/><path d="M237.78,362.9c0,.14-.26.22-.53.17s-.48-.19-.46-.33.27-.22.54-.18S237.81,362.76,237.78,362.9Z" fill="#fafafa"/><path d="M239.73,377.17c0,.14-.28.19-.55.11s-.46-.24-.41-.38.29-.19.55-.12S239.77,377,239.73,377.17Z" fill="#fafafa"/><path d="M244,377.8c0,.15-.5.22-1.1.16s-1.07-.22-1.05-.37.52-.21,1.1-.15S244,377.66,244,377.8Z" fill="#fafafa"/><path d="M248.32,377.57c0,.14-.45.31-1,.37s-1.1,0-1.11-.15.47-.31,1.05-.37S248.29,377.43,248.32,377.57Z" fill="#fafafa"/><path d="M251.39,376.85c0,.13-.14.31-.41.39s-.52,0-.55-.12.15-.31.41-.38S251.35,376.71,251.39,376.85Z" fill="#fafafa"/><path d="M212.32,318.75c0,.15-.19.29-.46.33s-.51-.05-.53-.19.19-.29.46-.33S212.3,318.61,212.32,318.75Z" fill="#fafafa"/><path d="M216.15,318.41c0,.14-.41.29-.94.33s-1-.05-1-.19.41-.29.94-.33S216.14,318.26,216.15,318.41Z" fill="#fafafa"/><path d="M220,318.33c0,.14-.44.26-1,.26s-1-.11-1-.26.43-.26,1-.26S220,318.18,220,318.33Z" fill="#fafafa"/><path d="M223.84,318.51c0,.15-.45.24-1,.2s-1-.18-.94-.32.44-.23,1-.2S223.85,318.37,223.84,318.51Z" fill="#fafafa"/><path d="M227.66,319c0,.14-.47.2-1,.12s-.93-.24-.92-.38.46-.2,1-.13S227.68,318.82,227.66,319Z" fill="#fafafa"/><path d="M231.44,319.68c0,.14-.48.17-1,.06s-.91-.31-.89-.45.47-.17,1-.06S231.47,319.54,231.44,319.68Z" fill="#fafafa"/><path d="M234.27,320.4c0,.14-.29.19-.55.12s-.45-.24-.42-.38.29-.2.55-.12S234.31,320.26,234.27,320.4Z" fill="#fafafa"/><path d="M212.31,284.41c0,.15-.24.25-.51.24s-.49-.15-.49-.29.24-.25.52-.23S212.32,284.27,212.31,284.41Z" fill="#fafafa"/><path d="M216.62,284.77c0,.15-.51.22-1.1.16s-1.06-.22-1.05-.36.5-.22,1.1-.16S216.64,284.63,216.62,284.77Z" fill="#fafafa"/><path d="M220.9,285.36c0,.14-.52.19-1.1.1s-1.05-.28-1-.42.51-.19,1.1-.1S220.93,285.22,220.9,285.36Z" fill="#fafafa"/><path d="M225.15,286.17c0,.14-.53.16-1.11,0s-1-.33-1-.47.53-.16,1.11,0S225.18,286,225.15,286.17Z" fill="#fafafa"/><path d="M228.23,286.9c0,.14-.28.2-.55.13s-.46-.23-.42-.37.28-.2.55-.14S228.26,286.76,228.23,286.9Z" fill="#fafafa"/><path d="M132.8,314.25c0,.14-.15.31-.41.38s-.52,0-.55-.13.14-.31.41-.38S132.77,314.11,132.8,314.25Z" fill="#fafafa"/><path d="M136.72,313.33c0,.14-.38.35-.92.47s-1,.11-1,0,.38-.35.92-.48S136.69,313.19,136.72,313.33Z" fill="#fafafa"/><path d="M140.68,312.59c0,.14-.4.33-1,.43s-1,.06-1-.08.39-.34.94-.44S140.65,312.44,140.68,312.59Z" fill="#fafafa"/><path d="M144.66,312c0,.14-.41.31-1,.38s-1,0-1-.12.41-.32,1-.39S144.64,311.87,144.66,312Z" fill="#fafafa"/><path d="M148.67,311.62c0,.14-.43.3-1,.35s-1,0-1-.17.43-.3,1-.35S148.66,311.48,148.67,311.62Z" fill="#fafafa"/><path d="M152.69,311.4c0,.15-.44.28-1,.31s-1-.08-1-.22.43-.28,1-.3S152.68,311.26,152.69,311.4Z" fill="#fafafa"/><path d="M156.71,311.36c0,.14-.45.26-1,.26s-1-.12-1-.26.45-.26,1-.26S156.71,311.22,156.71,311.36Z" fill="#fafafa"/><path d="M159.73,311.45c0,.14-.24.25-.51.24s-.5-.14-.49-.28.23-.26.51-.24S159.73,311.3,159.73,311.45Z" fill="#fafafa"/><path d="M101,298.63c0,.14-.17.3-.44.35s-.52,0-.54-.16.16-.3.44-.35S101,298.49,101,298.63Z" fill="#fafafa"/><path d="M104.76,298.1c0,.14-.4.31-.91.37s-.95,0-1-.15.39-.31.91-.37S104.74,298,104.76,298.1Z" fill="#fafafa"/><path d="M108.53,297.88c0,.14-.42.27-.94.29s-.94-.08-1-.22.41-.28.93-.3S108.52,297.73,108.53,297.88Z" fill="#fafafa"/><path d="M112.3,298c0,.14-.44.24-1,.22s-.94-.16-.93-.31.43-.24,1-.21S112.31,297.83,112.3,298Z" fill="#fafafa"/><path d="M116.06,298.37c0,.14-.46.2-1,.14s-.92-.24-.91-.38.45-.21,1-.14S116.08,298.23,116.06,298.37Z" fill="#fafafa"/><path d="M119.77,299.07c0,.14-.47.17-1,.06s-.9-.31-.87-.45.47-.17,1-.06S119.8,298.93,119.77,299.07Z" fill="#fafafa"/><path d="M123.41,300.08c0,.14-.48.13-1,0s-.87-.38-.83-.52.48-.13,1,0S123.45,299.94,123.41,300.08Z" fill="#fafafa"/><path d="M126.13,301.05c-.06.14-.31.17-.56.07s-.43-.29-.38-.42.3-.17.56-.07S126.18,300.92,126.13,301.05Z" fill="#fafafa"/><path d="M134.78,278.88c0,.14-.21.27-.49.28s-.5-.09-.51-.24.21-.27.49-.28S134.77,278.73,134.78,278.88Z" fill="#fafafa"/><path d="M138.36,278.71c0,.14-.38.28-.88.3s-.9-.07-.91-.22.39-.28.89-.3S138.36,278.56,138.36,278.71Z" fill="#fafafa"/><path d="M142,278.54c0,.14-.39.27-.88.3s-.91-.08-.91-.22.39-.28.88-.3S141.94,278.39,142,278.54Z" fill="#fafafa"/><path d="M145.53,278.36c0,.15-.38.28-.88.31s-.9-.08-.91-.22.39-.28.89-.3S145.53,278.22,145.53,278.36Z" fill="#fafafa"/><path d="M149.12,278.19c0,.15-.39.28-.88.31s-.91-.08-.91-.22.39-.28.88-.3S149.11,278.05,149.12,278.19Z" fill="#fafafa"/><path d="M151.91,278.06c0,.15-.21.27-.49.29s-.5-.1-.51-.24.21-.27.49-.28S151.9,277.92,151.91,278.06Z" fill="#fafafa"/><path d="M80.76,426.46c.1.11,0,.35-.17.54s-.44.27-.54.17,0-.35.17-.54S80.66,426.36,80.76,426.46Z" fill="#fafafa"/><path d="M83.55,423.8c.1.11-.13.49-.52.85s-.78.58-.88.47.13-.48.52-.85S83.46,423.69,83.55,423.8Z" fill="#fafafa"/><path d="M86.43,421.22c.09.11-.15.48-.55.83s-.8.56-.9.45.15-.48.55-.84S86.33,421.11,86.43,421.22Z" fill="#fafafa"/><path d="M89.37,418.72c.1.11-.16.48-.57.82s-.82.53-.91.42.17-.48.58-.82S89.28,418.61,89.37,418.72Z" fill="#fafafa"/><path d="M92.39,416.31c.09.11-.18.47-.6.8s-.83.51-.92.4.18-.48.6-.81S92.3,416.2,92.39,416.31Z" fill="#fafafa"/><path d="M95.48,414c.08.11-.2.47-.62.78s-.85.48-.93.37.19-.47.62-.79S95.39,413.87,95.48,414Z" fill="#fafafa"/><path d="M98.63,411.76c.08.11-.21.46-.64.76s-.86.46-.95.34.21-.46.65-.77S98.55,411.64,98.63,411.76Z" fill="#fafafa"/><path d="M101.84,409.61c.08.12-.22.46-.66.75s-.87.43-1,.31.22-.45.66-.74S101.76,409.49,101.84,409.61Z" fill="#fafafa"/><path d="M105.12,407.57c.07.12-.24.45-.69.72s-.88.41-1,.29.23-.45.69-.73S105,407.44,105.12,407.57Z" fill="#fafafa"/><path d="M108.45,405.61c.07.13-.25.45-.71.71s-.89.38-1,.26.24-.44.7-.71S108.38,405.49,108.45,405.61Z" fill="#fafafa"/><path d="M111.84,403.76c.06.13-.26.43-.73.68s-.9.36-1,.23.25-.43.72-.68S111.77,403.63,111.84,403.76Z" fill="#fafafa"/><path d="M115.28,402c.06.13-.27.43-.75.67s-.91.33-1,.2.27-.43.75-.67S115.21,401.87,115.28,402Z" fill="#fafafa"/><path d="M118.76,400.35c.06.13-.28.41-.76.64s-.92.3-1,.17.29-.42.77-.64S118.71,400.21,118.76,400.35Z" fill="#fafafa"/><path d="M121.44,399.16c.06.13-.1.33-.35.44s-.51.09-.56,0,.1-.33.35-.44S121.39,399,121.44,399.16Z" fill="#fafafa"/><path d="M158.89,406.72c-.13-.06-.14-.31,0-.56s.33-.4.45-.34.14.32,0,.57S159,406.78,158.89,406.72Z" fill="#fafafa"/><path d="M157.35,410.23c-.13-.05-.07-.49.13-1s.48-.84.61-.79.08.5-.13,1S157.49,410.28,157.35,410.23Z" fill="#fafafa"/><path d="M156,413.82c-.14,0-.11-.48.06-1s.43-.87.57-.82.1.49-.07,1S156.17,413.87,156,413.82Z" fill="#fafafa"/><path d="M154.94,417.49c-.14,0-.14-.48,0-1s.37-.89.51-.85.13.49,0,1S155.08,417.53,154.94,417.49Z" fill="#fafafa"/><path d="M154.06,421.22c-.14,0-.16-.47-.05-1s.32-.91.46-.88.16.48.05,1S154.2,421.25,154.06,421.22Z" fill="#fafafa"/><path d="M153.41,425c-.14,0-.19-.46-.11-1s.27-.93.41-.91.19.47.11,1S153.55,425,153.41,425Z" fill="#fafafa"/><path d="M153,428.8c-.14,0-.22-.45-.17-1s.21-.94.35-.93.22.46.17,1S153.13,428.81,153,428.8Z" fill="#fafafa"/><path d="M152.8,432.62c-.15,0-.25-.43-.23-1s.15-1,.3-1,.24.44.22,1S152.94,432.63,152.8,432.62Z" fill="#fafafa"/><path d="M152.84,436.45c-.14,0-.27-.42-.29-.95s.1-1,.24-1,.27.42.29.95S153,436.45,152.84,436.45Z" fill="#fafafa"/><path d="M153,439.36c-.14,0-.28-.2-.3-.48s.08-.51.22-.52.28.21.3.48S153.17,439.35,153,439.36Z" fill="#fafafa"/><path d="M258.6,409.84c-.06-.13.09-.33.35-.45s.5-.1.56,0-.1.33-.34.45S258.67,410,258.6,409.84Z" fill="#fafafa"/><path d="M255.2,411.81c-.08-.12.23-.45.69-.74s.91-.43,1-.3-.24.46-.7.74S255.28,411.93,255.2,411.81Z" fill="#fafafa"/><path d="M252.1,414.23c-.1-.1.16-.47.58-.83s.84-.54.93-.43-.18.49-.59.83S252.19,414.34,252.1,414.23Z" fill="#fafafa"/><path d="M249.35,417.06c-.11-.1.1-.5.47-.91s.75-.65.86-.55-.11.5-.47.9S249.46,417.15,249.35,417.06Z" fill="#fafafa"/><path d="M247,420.23c-.12-.08,0-.51.34-1s.66-.76.77-.67,0,.52-.34,1S247.15,420.3,247,420.23Z" fill="#fafafa"/><path d="M245.16,423.69c-.13-.06,0-.5.2-1s.55-.83.67-.76,0,.51-.2,1S245.3,423.75,245.16,423.69Z" fill="#fafafa"/><path d="M243.8,427.39c-.13,0-.11-.5.06-1s.43-.9.56-.85.11.5-.06,1S243.94,427.42,243.8,427.39Z" fill="#fafafa"/><path d="M243,431.23c-.14,0-.18-.48-.08-1s.3-.95.44-.92.17.49.07,1S243.1,431.25,243,431.23Z" fill="#fafafa"/><path d="M242.65,435.15c-.15,0-.24-.45-.22-1s.16-1,.31-1,.24.46.21,1S242.79,435.15,242.65,435.15Z" fill="#fafafa"/><path d="M242.77,438.11c-.14,0-.27-.2-.29-.48s.07-.51.22-.52.27.21.29.48S242.92,438.1,242.77,438.11Z" fill="#fafafa"/><path d="M216.1,424.07c0,.14-.27.21-.54.16s-.47-.22-.44-.36.28-.21.55-.15S216.13,423.93,216.1,424.07Z" fill="#fafafa"/><path d="M220.2,424.64c0,.15-.48.21-1,.15s-1-.23-1-.38.49-.2,1-.14S220.21,424.5,220.2,424.64Z" fill="#fafafa"/><path d="M224.34,424.78c0,.14-.46.26-1,.25s-1-.12-1-.26.47-.26,1-.26S224.34,424.64,224.34,424.78Z" fill="#fafafa"/><path d="M228.47,424.48c0,.15-.43.31-1,.36s-1,0-1.05-.15.44-.31,1-.36S228.45,424.34,228.47,424.48Z" fill="#fafafa"/><path d="M231.5,424c0,.14-.17.3-.44.35s-.52,0-.54-.16.17-.3.44-.35S231.47,423.84,231.5,424Z" fill="#fafafa"/><path d="M168.13,405.75a2.88,2.88,0,0,1-.65-.05l-1.86-.23-6.82-1-22.48-3.34L120,398.66H120a11.6,11.6,0,0,0-5.68,2.51,12.3,12.3,0,0,0-3.1,3.7,14.29,14.29,0,0,0-1.38,4s0-.1,0-.29a7.76,7.76,0,0,1,.1-.83,11.56,11.56,0,0,1,1-3,12.6,12.6,0,0,1,3.1-3.86,11.88,11.88,0,0,1,5.85-2.66H120l16.36,2.45,22.45,3.48,6.8,1.12,1.84.33A3,3,0,0,1,168.13,405.75Z" fill="#263238"/><path d="M164.37,439.72a1.55,1.55,0,0,1-.44-.15,9.06,9.06,0,0,1-1.23-.55,13.46,13.46,0,0,1-3.85-3.08,17.6,17.6,0,0,1-3.51-6.43,20.68,20.68,0,0,1-.68-8.93,17.18,17.18,0,0,1,3.68-8.16,18,18,0,0,1,5.65-4.65,16,16,0,0,1,4.65-1.64A10.63,10.63,0,0,1,170,406a1.67,1.67,0,0,1,.47,0,20.64,20.64,0,0,0-6.28,2.14,18.23,18.23,0,0,0-5.45,4.63,17,17,0,0,0-3.53,7.94,20.66,20.66,0,0,0,.62,8.71,17.75,17.75,0,0,0,3.33,6.33,14.09,14.09,0,0,0,3.67,3.14C163.8,439.42,164.39,439.67,164.37,439.72Z" fill="#263238"/><g opacity=".2"><path d="M128.87 348.79L135.84 400.85 127.01 398.86 124.27 376.16 128.87 348.79z"/></g><g opacity=".3"><path d="M271.41,412.81a35.32,35.32,0,0,0-12.68,0,12.73,12.73,0,0,0-8.46,6.47,14.68,14.68,0,0,0-1.44,10c.6,2.93,1.23,6,3.37,8,3.16,3.07,6.28,4.06,10.36,3.34l7.91-2.58Z"/></g><path d="M264.64,440.13a2.06,2.06,0,0,1-.52.22,9.51,9.51,0,0,1-1.58.43,11.77,11.77,0,0,1-6-.33,10.31,10.31,0,0,1-3.63-2.07,12.74,12.74,0,0,1-2.89-3.81,18,18,0,0,1-1.66-5,15,15,0,0,1-.13-5.67,17.62,17.62,0,0,1,2.1-5.27,12.24,12.24,0,0,1,7.93-5.88,21.1,21.1,0,0,1,4.14-.47,41.25,41.25,0,0,1,6,.39l1.61.23a2.19,2.19,0,0,1,.56.12,2.5,2.5,0,0,1-.57,0l-1.62-.14a50.15,50.15,0,0,0-5.94-.22,20.82,20.82,0,0,0-4,.52,12.11,12.11,0,0,0-4.2,1.92,15.09,15.09,0,0,0-5.43,8.91,14.83,14.83,0,0,0,.12,5.48,18,18,0,0,0,1.58,4.89,12.57,12.57,0,0,0,2.76,3.71,10.1,10.1,0,0,0,3.46,2,12.11,12.11,0,0,0,5.82.48C263.89,440.36,264.63,440.08,264.64,440.13Z" fill="#263238"/><path d="M234.66,395.61a1.57,1.57,0,0,1-.06.5c-.06.39-.15.86-.25,1.43-.25,1.23-.57,3-.95,5.23a106.66,106.66,0,0,0-1.6,17.42,79.46,79.46,0,0,0,.59,9.61,74.8,74.8,0,0,0,1.42,7.74c.23,1.1.53,2.07.75,2.93s.45,1.59.64,2.19.3,1,.41,1.39a1.66,1.66,0,0,1,.11.5,2.63,2.63,0,0,1-.21-.47l-.5-1.35c-.22-.59-.48-1.32-.73-2.18s-.58-1.82-.83-2.92a67.73,67.73,0,0,1-1.54-7.76,76.42,76.42,0,0,1-.63-9.68A96,96,0,0,1,233,402.71c.42-2.21.8-4,1.11-5.21.14-.57.26-1,.35-1.41A1.89,1.89,0,0,1,234.66,395.61Z" fill="#263238"/><g opacity=".3"><path d="M169.27,406.05c-3.7,1-7.63,2.16-10.17,5a19.4,19.4,0,0,0-1.2,22.82,15.36,15.36,0,0,0,4.57,4.75,9.65,9.65,0,0,0,6.15.86,15.53,15.53,0,0,0,11.92-10.82,21.25,21.25,0,0,0-2.39-17c-1.5-2.25-6.3-4.81-8.88-5.63"/></g><path d="M305.52,434.85c.26,0,1.59.78.53,2.88s-8.93,9.14-11.34,6.8,1.13-5.34,1.13-5.34Z" fill="#ffbe9d"/><path d="M295.5,439.29s-9.65,1.42-13.35,2.91c-4,1.63-9,.68-12.34-1.5a34.56,34.56,0,0,1-5.34-4.17l-12.35.07a14.83,14.83,0,0,1-2.73-15.26,16.48,16.48,0,0,1,2.73-4.88c1.43-1.61,3.72-2.95,7.71-3.72l14.74,2.86s22.7-2.1,26.78-.28c0,0,5.14,2.91,6.74,4.14.6.46,2.52,6.21-1.11,9.29,0,0,3.27,2.5,1.58,4.83l-.82,1s2.23,2.75,1.14,4-10.69,7.14-14.2,5.86-.7-4.57.82-5.19" fill="#ffbe9d"/><path d="M304.44,423.81a7.84,7.84,0,0,0-1.19.45c-.76.31-1.87.75-3.25,1.22-.7.24-1.46.48-2.29.72s-1.73.44-2.66.76a5.76,5.76,0,0,0-2.63,1.67,3.26,3.26,0,0,0-.64,3.26,2.54,2.54,0,0,0,1.22,1.26,4.42,4.42,0,0,0,1.63.42,13.38,13.38,0,0,0,3.08-.23,26.9,26.9,0,0,0,5-1.41c1.38-.52,2.47-1,3.22-1.35a7.22,7.22,0,0,0,1.14-.57,8.67,8.67,0,0,0-1.2.43c-.77.29-1.87.74-3.26,1.22a30.23,30.23,0,0,1-5,1.32,14,14,0,0,1-3,.2,4.43,4.43,0,0,1-1.48-.38,2.23,2.23,0,0,1-1-1.07,2.91,2.91,0,0,1,.58-2.86,5.51,5.51,0,0,1,2.45-1.56c.9-.32,1.8-.53,2.63-.79s1.59-.51,2.28-.77c1.39-.51,2.48-1,3.22-1.34A7.43,7.43,0,0,0,304.44,423.81Z" fill="#eb996e"/><path d="M303.42,416.83a7.57,7.57,0,0,0-1.18.45c-.76.31-1.85.76-3.23,1.25s-3,1-4.89,1.52a6.71,6.71,0,0,0-2.85,1.22,2.43,2.43,0,0,0-.81,1.5,3.08,3.08,0,0,0,.28,1.72,4.17,4.17,0,0,0,2.58,2.11,6.81,6.81,0,0,0,3.09.18,30,30,0,0,0,4.94-1.54l3.24-1.22a8.39,8.39,0,0,0,1.18-.49,6.47,6.47,0,0,0-1.23.34l-3.29,1.1a32.84,32.84,0,0,1-4.89,1.44,6.33,6.33,0,0,1-2.92-.19,3.77,3.77,0,0,1-2.33-1.9,2.28,2.28,0,0,1,.43-2.76,6.45,6.45,0,0,1,2.67-1.15,49.55,49.55,0,0,0,4.9-1.61c1.37-.53,2.45-1,3.19-1.37A6.93,6.93,0,0,0,303.42,416.83Z" fill="#eb996e"/><path d="M298.8,418.92a11.65,11.65,0,0,0,.4-1.95,10.82,10.82,0,0,0,.45-1.94,4.77,4.77,0,0,0-.85,3.89Z" fill="#eb996e"/><path d="M264.64,419.93l8.56-3.51s23.73-11.68,24.15-11.09,1.72.51,1.49,3.43-14.06,9.12-14.48,10.14.42,6.12-4.66,9.9-8.8,3.93-8.8,3.93" fill="#ffbe9d"/><path d="M270.9,432.73h.2l.6-.07a13.17,13.17,0,0,0,2.23-.59,19.26,19.26,0,0,0,3.31-1.52,19.72,19.72,0,0,0,3.92-2.84A10.44,10.44,0,0,0,284,422.6a24.15,24.15,0,0,0,.44-3.23,1.34,1.34,0,0,1,.08-.37c0-.08.11-.15.22-.24s.45-.32.69-.47c.48-.3,1-.58,1.5-.87,2.06-1.15,4.25-2.32,6.45-3.65a38.7,38.7,0,0,0,3.28-2.17,12,12,0,0,0,1.54-1.33,4.21,4.21,0,0,0,.64-.85,1.92,1.92,0,0,0,.19-.54c0-.2,0-.36,0-.53a3.83,3.83,0,0,0-.42-2.08,2.61,2.61,0,0,0-.77-.75,1.24,1.24,0,0,1-.34-.28l-.09-.08a.33.33,0,0,0-.17-.05l-.16,0-.26.07c-1.29.42-2.47,1-3.65,1.48-2.35,1.05-4.59,2.11-6.73,3.12-4.26,2-8.08,3.9-11.27,5.48-.81.39-1.56.79-2.29,1.12l-2.09.87-3.35,1.41-2.11.91-.55.24-.18.1s.07,0,.2-.06l.56-.21,2.14-.83,3.38-1.35,2.11-.85c.74-.32,1.49-.71,2.3-1.09l11.31-5.4c2.14-1,4.38-2.05,6.73-3.09,1.17-.51,2.37-1.06,3.6-1.47l.22-.06h.08s0,0,0,0,0-.06,0-.1l0,0c-.27.19-.07.06-.12.11l0,0a1.55,1.55,0,0,0,.43.36,2.1,2.1,0,0,1,.66.63,3.38,3.38,0,0,1,.35,1.86,1.72,1.72,0,0,1-.18.89,3.48,3.48,0,0,1-.58.76,12.22,12.22,0,0,1-1.48,1.29,38.66,38.66,0,0,1-3.24,2.15c-2.2,1.33-4.38,2.5-6.43,3.66-.52.3-1,.59-1.51.89a8.59,8.59,0,0,0-.73.5,1.1,1.1,0,0,0-.33.39,2,2,0,0,0-.09.45,24.42,24.42,0,0,1-.42,3.21,10.15,10.15,0,0,1-2.71,5,20,20,0,0,1-3.83,2.84,20.58,20.58,0,0,1-3.25,1.58,15.38,15.38,0,0,1-2.19.65c-.26.06-.46.09-.59.11Z" fill="#eb996e"/><path d="M297.35,433.3a3.12,3.12,0,0,0-.91.29,8.86,8.86,0,0,0-2.23,1.35,8.68,8.68,0,0,0-1.28,1.29,2.71,2.71,0,0,0-.65,2,2.24,2.24,0,0,0,1.63,1.69,4.31,4.31,0,0,0,2.51-.13,47,47,0,0,0,7.88-3.36,23.9,23.9,0,0,0,2.21-1.37,3.47,3.47,0,0,0,.74-.59,6.28,6.28,0,0,0-.83.46c-.52.31-1.29.75-2.26,1.25a54.84,54.84,0,0,1-7.86,3.22,4,4,0,0,1-2.27.14,1.86,1.86,0,0,1-1.39-1.37,2.49,2.49,0,0,1,.56-1.78,8.14,8.14,0,0,1,1.2-1.27A13.82,13.82,0,0,1,297.35,433.3Z" fill="#eb996e"/><path d="M161.4,409.69l15.23.32s22.84-8.26,27.54-7.47c4.23.71,19.72,11,22.75,13a2,2,0,0,1,.74.93h0a3.33,3.33,0,0,1-1.85,4.22l-.32.14.14.46a5.63,5.63,0,0,1,.23,1.85,2.23,2.23,0,0,1-4.15,1l.58,1a2.58,2.58,0,0,1,.33,1.39l-.05.94a2.55,2.55,0,0,1-1.75,2.27h0a2.52,2.52,0,0,1-2.66-.7c-2-2.16-6.21-6.48-9.08-7a66.84,66.84,0,0,0-9.38-.47,3.16,3.16,0,0,0-2.94,2h0c1.7.12,13.57,6.31,17.77,8.52a4.51,4.51,0,0,1,2.44,3.38c.15,1.32-.51,2.7-3.11,2.09-5.58-1.3-15.62-5.92-15.62-5.92s-5.18-1.48-8.54.89c-4.72,3.33-6.88,4.55-10.94,3.2a34.19,34.19,0,0,1-7-3.27l-13.82,1.34S149.45,420.15,161.4,409.69Z" fill="#ffbe9d"/><path d="M196.67,413.86c0,.09,1.62-.42,4.29-.59a22.14,22.14,0,0,1,18.46,7.88,39.36,39.36,0,0,1,2.54,3.51,4.51,4.51,0,0,0-.51-1.06,19.25,19.25,0,0,0-1.79-2.65,21.48,21.48,0,0,0-18.72-8,19.58,19.58,0,0,0-3.16.53A5.23,5.23,0,0,0,196.67,413.86Z" fill="#eb996e"/><path d="M199.09,408.32a18.59,18.59,0,0,1,4.47-.78A19.52,19.52,0,0,1,214,410.48a42.2,42.2,0,0,1,8.37,7.08l2.29,2.44a7.25,7.25,0,0,0,.88.87,7.23,7.23,0,0,0-.75-1c-.51-.61-1.25-1.48-2.2-2.53a38.29,38.29,0,0,0-8.37-7.25,19.11,19.11,0,0,0-10.63-2.88,12.88,12.88,0,0,0-3.31.61,7.6,7.6,0,0,0-.86.33C199.18,408.25,199.08,408.3,199.09,408.32Z" fill="#eb996e"/></g><g><path d="M395.67,444.47a21.91,21.91,0,0,1,17.48-9.87c11.93-.41,17.9,9.87,17.9,9.87Z" fill="#455a64"/><path d="M418.54,444.17c-.08,0-.1-.7-.35-1.78a11.43,11.43,0,0,0-4.73-7,14.25,14.25,0,0,1-1.52-1,4,4,0,0,1,1.72.67,10.17,10.17,0,0,1,4.9,7.21A4,4,0,0,1,418.54,444.17Z" fill="#263238"/><path d="M623.05,444.47v-.08a4.58,4.58,0,0,0-4.58-4.5H516.85a4.58,4.58,0,0,0-4.58,4.58H623.05Z" fill="#455a64"/><path d="M389.26,280.69H566.59a5.91,5.91,0,0,1,5.91,5.91V399.26a5.91,5.91,0,0,1-5.91,5.91H389.26a2.09,2.09,0,0,1-2.09-2.09V282.78A2.09,2.09,0,0,1,389.26,280.69Z" transform="rotate(180 479.835 342.925)" fill="#455a64"/><path transform="rotate(180 474.595 417.605)" fill="#455a64" d="M457.24 390.74H491.95V444.47H457.24z"/><rect x="563.35" y="280.69" width="9.14" height="124.47" rx="2.09" transform="rotate(180 567.925 342.925)" fill="#263238"/><path d="M457.1,381.07c.14,0,.29,14.19.33,31.7s0,31.7-.19,31.7-.29-14.19-.33-31.7S457,381.07,457.1,381.07Z" fill="#263238"/><path d="M492.31,380.25c.14,0,.18,14.22.08,31.77s-.3,31.77-.44,31.77-.18-14.23-.08-31.78S492.16,380.25,492.31,380.25Z" fill="#263238"/><path d="M551.25,394.33a1.12,1.12,0,0,1,0-.22c0-.17,0-.38,0-.63,0-.58,0-1.37,0-2.38,0-2.1,0-5.08-.09-8.83l.17.17-39.33.09.26-.26h0v6.14c0,2,0,4,0,5.9l-.25-.25,28.05.11,8.25.07,2.23,0H551l.21,0a6.5,6.5,0,0,1-.74,0l-2.17,0-8.2.08-28.22.11h-.26V382.29h0l.26-.26,39.33.1h.16v.16c0,3.79-.07,6.81-.09,8.93,0,1,0,1.77,0,2.34A7.51,7.51,0,0,1,551.25,394.33Z" fill="#263238"/><path d="M487.56,374.4c0,.14-6.44.26-14.38.26s-14.39-.12-14.39-.26,6.44-.26,14.39-.26S487.56,374.26,487.56,374.4Z" fill="#263238"/></g><g><path d="M356.31,444.47H216.87l18-97.87a7.31,7.31,0,0,1,7.19-6h125.3a7.31,7.31,0,0,1,7.18,8.69Z" fill="#455a64"/><path d="M216.87,444.47H164l.21-.16a28.62,28.62,0,0,1,16.31-5.71l37.82-1.11Z" fill="#455a64"/><path d="M250.36,340.75s-.39-.08-1.13-.08a6.82,6.82,0,0,0-3.1.77,9.51,9.51,0,0,0-3.71,3.38,18,18,0,0,0-2.28,6.32c-.45,2.48-.86,5.23-1.35,8.16s-1,6.06-1.66,9.35c-1.21,6.58-2.65,13.79-4.22,21.35-3.15,15.11-6.06,28.78-8,38.71-1,5-1.7,9-2.2,11.77-.24,1.36-.44,2.43-.58,3.2l-.16.83a1.09,1.09,0,0,1-.08.29,1.26,1.26,0,0,1,0-.29q0-.33.12-.84c.11-.78.28-1.85.48-3.22.44-2.8,1.13-6.84,2-11.81,1.82-9.95,4.67-23.64,7.82-38.75,1.57-7.55,3-14.76,4.26-21.33.63-3.28,1.18-6.41,1.71-9.33s.93-5.66,1.41-8.16a18.11,18.11,0,0,1,2.39-6.41,9.72,9.72,0,0,1,3.88-3.41,6.77,6.77,0,0,1,3.18-.69A3.84,3.84,0,0,1,250.36,340.75Z" fill="#263238"/><path d="M309.25,390.34a6.74,6.74,0,1,1-6.74-6.74A6.74,6.74,0,0,1,309.25,390.34Z" fill="#f5f5f5"/></g><g><path d="M718.3,444.47c0,.14-153.71.26-343.28.26s-343.32-.12-343.32-.26,153.68-.26,343.32-.26S718.3,444.33,718.3,444.47Z" fill="#263238"/></g><g><path d="M345.71,419.06c-7.17-4.16-11-13.83-11.3-21.75s3-16.18,9.51-20.72c6.84-4.78,16.58-4.7,23.61-.2a24.59,24.59,0,0,1,10.82,21.34A28.28,28.28,0,0,1,366.77,419" fill="#d64864"/><path d="M357.16,419.82A9,9,0,0,1,357,418c0-1.29-.09-2.95-.14-4.94-.11-4.17-.27-9.92-.55-16.28s-.63-12.11-.89-16.27c-.11-2-.21-3.64-.29-4.93a10.55,10.55,0,0,1,0-1.82,9,9,0,0,1,.29,1.8c.14,1.15.32,2.83.51,4.91.38,4.16.8,9.91,1.08,16.28s.37,12.13.35,16.31c0,2.09,0,3.78-.07,4.94A9,9,0,0,1,357.16,419.82Z" fill="#fff"/><path d="M336.54,395.51c0,.19-1.16.25-2.56.13s-2.52-.36-2.5-.54,1.16-.24,2.56-.13S336.55,395.33,336.54,395.51Z" fill="#263238"/><path d="M336.93,388.41c-.08.17-1.06-.1-2.21-.61s-2-1.05-1.93-1.22,1.06.1,2.21.61S337,388.24,336.93,388.41Z" fill="#263238"/><path d="M340.58,383.14c-.09.15-1.2-.37-2.36-1.33s-1.87-1.95-1.74-2.07,1,.63,2.17,1.55S340.68,383,340.58,383.14Z" fill="#263238"/><path d="M344.26,378.16c-.17.08-.7-.75-1.19-1.85s-.74-2.06-.57-2.13.7.75,1.19,1.85S344.43,378.09,344.26,378.16Z" fill="#263238"/><path d="M350,374.63c-.17.08-.74-.81-1.12-2s-.41-2.28-.23-2.31.5.93.87,2.11S350.2,374.55,350,374.63Z" fill="#263238"/><path d="M359.65,370.65c.18.06.07.82-.24,1.69s-.69,1.52-.87,1.46-.07-.82.24-1.69S359.48,370.59,359.65,370.65Z" fill="#263238"/><path d="M366.79,373.71c.13.14-.33.77-1,1.41s-1.35,1.05-1.48.91.33-.77,1-1.4S366.67,373.58,366.79,373.71Z" fill="#263238"/><path d="M373.08,377.77c.1.16-.46.72-1.25,1.25s-1.52.85-1.62.7.45-.72,1.24-1.25S373,377.62,373.08,377.77Z" fill="#263238"/><path d="M377.54,383.82c.07.18-.81.71-2,1.21s-2.15.76-2.23.58.81-.71,2-1.2S377.47,383.65,377.54,383.82Z" fill="#263238"/><path d="M379.3,390.42c0,.19-.88.45-2,.59s-2.06.1-2.09-.08.88-.45,2-.59S379.27,390.24,379.3,390.42Z" fill="#263238"/><path d="M380.21,398.55c-.07.17-1-.08-2.13-.56s-1.94-1-1.86-1.18,1,.08,2.13.56S380.28,398.38,380.21,398.55Z" fill="#263238"/><path d="M379.41,405.52c-.06.17-1.27-.12-2.53-.95s-2-1.81-1.88-1.93,1.05.6,2.25,1.37S379.47,405.34,379.41,405.52Z" fill="#263238"/><path d="M375.78,411.87c-.11.14-1.07-.42-2-1.42s-1.41-2-1.26-2.09.87.69,1.76,1.63S375.89,411.72,375.78,411.87Z" fill="#263238"/><path d="M341.31,412.61c.08.17-.92.86-2.25,1.55s-2.48,1.12-2.57,1,.93-.86,2.26-1.55S341.22,412.45,341.31,412.61Z" fill="#263238"/><path d="M338.16,406.87c.08.17-.73.7-1.8,1.19s-2,.74-2.09.58.73-.71,1.81-1.19S338.08,406.7,338.16,406.87Z" fill="#263238"/><path d="M335.85,401.79c0,.18-1,.47-2.23.65s-2.29.18-2.31,0,1-.48,2.22-.65S335.82,401.6,335.85,401.79Z" fill="#263238"/><path d="M343.44,399c.05.17-.92.62-2.21.77s-2.35-.08-2.33-.26,1-.27,2.25-.41S343.38,398.8,343.44,399Z" fill="#263238"/><path d="M349.74,392.71c.06.17-.71.56-1.76.67s-1.87-.13-1.85-.31.82-.27,1.79-.36S349.69,392.53,349.74,392.71Z" fill="#263238"/><path d="M351,387.68c-.06.18-.9.05-1.87-.29s-1.71-.75-1.65-.92.9-.05,1.87.29S351,387.51,351,387.68Z" fill="#263238"/><path d="M353.26,382.6c-.13.13-.7-.25-1.11-1s-.45-1.4-.28-1.45.49.48.86,1.11S353.4,382.47,353.26,382.6Z" fill="#263238"/><path d="M350.47,403.41c0,.18-.68.51-1.61.74a5.91,5.91,0,0,1-1.36.2l-.14-.39c.25,0,.4,0,.43,0s-.06.19-.26.34l-.13-.39a5.8,5.8,0,0,1,1.3-.45C349.63,403.27,350.43,403.23,350.47,403.41Z" fill="#263238"/><path d="M351.77,412.32c.07.18-.85.7-2.06,1.17s-2.24.72-2.31.55.86-.7,2.06-1.17S351.7,412.15,351.77,412.32Z" fill="#263238"/><path d="M344.65,408.36c.06.18-.56.55-1.38.83s-1.53.36-1.59.18.56-.54,1.38-.82S344.59,408.19,344.65,408.36Z" fill="#263238"/><path d="M345.19,390.23c0,.17-1.11.07-2.35-.37s-2.14-1-2.06-1.2,1.08.14,2.28.56S345.24,390,345.19,390.23Z" fill="#263238"/><path d="M362.43,388.25c.1.16-.5.74-1.35,1.3s-1.61.88-1.71.73.5-.74,1.34-1.3S362.33,388.1,362.43,388.25Z" fill="#263238"/><path d="M363.37,397.2c0,.18-.6.47-1.42.64s-1.51.16-1.55,0,.6-.47,1.42-.64S363.33,397,363.37,397.2Z" fill="#263238"/><path d="M364.46,407.26c-.08.17-1-.08-2-.57s-1.84-1-1.76-1.18,1,.08,2,.57S364.54,407.1,364.46,407.26Z" fill="#263238"/><path d="M362.15,417.06c-.14.12-.73-.37-1.32-1.08s-.95-1.39-.81-1.51.74.37,1.33,1.08S362.3,416.94,362.15,417.06Z" fill="#263238"/><path d="M361.68,381.66c.12.15-.28.64-.95,1s-1.3.35-1.35.18.44-.48,1.05-.78S361.57,381.51,361.68,381.66Z" fill="#263238"/><path d="M370.13,390.69c.06.17-.72.6-1.79.75s-1.94-.05-1.93-.23.84-.3,1.84-.44S370.07,390.51,370.13,390.69Z" fill="#263238"/><path d="M368.45,382.59c.08.16-.7.71-1.8,1.07s-2.06.35-2.08.17.83-.48,1.87-.82S368.36,382.42,368.45,382.59Z" fill="#263238"/><path d="M372,403.24c0,.18-1.33.3-2.93,0s-2.8-.86-2.74-1,1.32.1,2.86.37S372,403.05,372,403.24Z" fill="#263238"/><path d="M368.83,415c-.11.14-1.08-.43-2.06-1.41s-1.55-2-1.4-2.07.93.65,1.88,1.59S369,414.86,368.83,415Z" fill="#263238"/><path d="M355,373a30.07,30.07,0,0,0-5.89,4.66,28.79,28.79,0,0,0-7.34,16.22,36.38,36.38,0,0,0,.44,9.94,77.82,77.82,0,0,0,1.86,8c.65,2.25,1.24,4,1.64,5.29a13.56,13.56,0,0,1,.57,2,10.29,10.29,0,0,1-.82-1.87c-.47-1.22-1.13-3-1.84-5.24a69.38,69.38,0,0,1-2-8,35.63,35.63,0,0,1-.5-10.13,28.24,28.24,0,0,1,7.67-16.47,21.09,21.09,0,0,1,4.39-3.44,14.06,14.06,0,0,1,1.35-.7A1.75,1.75,0,0,1,355,373Z" fill="#fff"/><path d="M364.2,419.49a74.2,74.2,0,0,0,3-7.22A41,41,0,0,0,369,393.71a34.92,34.92,0,0,0-2.87-9.9,23.29,23.29,0,0,0-4.88-6.8,17.88,17.88,0,0,0-4.78-3c-1.24-.52-2-.64-2-.7a1.64,1.64,0,0,1,.55,0,8.87,8.87,0,0,1,1.52.41,16.48,16.48,0,0,1,5,2.91,23,23,0,0,1,5.12,6.88,34.22,34.22,0,0,1,3,10.08,39.39,39.39,0,0,1-2,18.81c-.38,1.16-.87,2.15-1.23,3.05s-.79,1.62-1.12,2.22A13.34,13.34,0,0,1,364.2,419.49Z" fill="#fff"/><path fill="#263238" d="M338.16 417.9L375.21 417.9 375.44 425.32 338.16 425.32 338.16 417.9z"/><path fill="#263238" d="M341.31 421.61L343.44 444.25 370.53 444.25 372.7 421.86 341.31 421.61z"/><path d="M375.44,425.41c0,.18-8.34.33-18.63.33s-18.64-.15-18.64-.33,8.34-.34,18.64-.34S375.44,425.22,375.44,425.41Z" fill="#455a64"/><path d="M371.68,432.3a5.79,5.79,0,0,1-.8,1.42,20.28,20.28,0,0,1-2.87,3.39l-.17.16-.17-.17a53.56,53.56,0,0,0-7.26-6.36l.41,0-3.22,2.83-3.81,3.31-.21.19-.21-.18c-2.31-1.94-4.4-3.71-6.19-5.2l.36,0c-1.27,1.56-2.35,2.87-3.2,3.9a9.21,9.21,0,0,1-1.25,1.38,9.27,9.27,0,0,1,1-1.55l3-4,.15-.21.21.17,6.28,5.09h-.43l3.8-3.33,3.23-2.81.19-.17.22.15a46.88,46.88,0,0,1,7.22,6.56h-.34A38.87,38.87,0,0,0,371.68,432.3Z" fill="#455a64"/></g><g><path d="M489.61,275.37a.94.94,0,0,1,0-.27c0-.21,0-.47,0-.8,0-.75,0-1.78-.05-3.09,0-2.73-.05-6.6-.09-11.37,0-9.64,0-22.88-.07-37.51,0-6.93,0-13.55,0-19.58l.24.24-24.1-.09-6.9-.07-1.84,0a2.83,2.83,0,0,1-.63,0,3.91,3.91,0,0,1,.63,0l1.84,0,6.9-.07,24.1-.09h.24v.24c0,6,0,12.65,0,19.58,0,14.63-.06,27.87-.08,37.51,0,4.77-.06,8.64-.08,11.37,0,1.31,0,2.34,0,3.09,0,.33,0,.59,0,.8A.8.8,0,0,1,489.61,275.37Z" fill="#263238"/><path d="M304.6,215.87c.15,0,.26,26.85.26,60s-.11,60-.26,60-.26-26.84-.26-60S304.46,215.87,304.6,215.87Z" fill="#263238"/><path d="M308,335.79a3.38,3.38,0,1,1-3.38-3.37A3.37,3.37,0,0,1,308,335.79Z" fill="#263238"/><path d="M493,275.37a3.37,3.37,0,1,1-3.37-3.37A3.37,3.37,0,0,1,493,275.37Z" fill="#263238"/><path fill="#263238" d="M262.4 95.5H470.74V216.9H262.4z"/><path d="M278.7,210.79c-.11,0-.2-24.83-.2-55.44s.09-55.45.2-55.45.2,24.82.2,55.45S278.81,210.79,278.7,210.79Z" fill="#e0e0e0"/><path d="M278.7,210.91c-.06,0-.09,0-.12-.16h0c-.05-.33-.06-1.33-.08-4.31,0-2.79-.05-6.79-.07-11.88,0-10.47-.06-24.39-.06-39.2s0-28.74.06-39.21c0-5.09,0-9.09.07-11.88,0-3,0-4,.08-4.31h0c0-.16.06-.16.12-.16s.09,0,.11.16h0c.05.33.06,1.33.08,4.31,0,2.79.05,6.79.06,11.88,0,10.48.06,24.4.06,39.21s0,28.72-.06,39.2c0,5.09,0,9.09-.06,11.88,0,3,0,4-.08,4.31h0C278.79,210.91,278.75,210.91,278.7,210.91Zm0-98.8c-.05,10.21-.08,25.86-.08,43.24s0,33,.08,43.23c0-10.2.07-25.86.07-43.23S278.74,122.32,278.7,112.11Z" fill="#e0e0e0"/><path d="M274.41,104.58a29.86,29.86,0,0,1-6.9,0,29.86,29.86,0,0,1,6.9,0Z" fill="#e0e0e0"/><path d="M271,104.9c-3.57,0-3.57-.21-3.57-.32s0-.32,3.57-.32,3.58.21,3.58.32S274.54,104.9,271,104.9Zm-2.69-.32c.57,0,1.47.07,2.69.07s2.13,0,2.69-.07c-.56,0-1.47-.07-2.69-.07S268.84,104.54,268.27,104.58Z" fill="#e0e0e0"/><path d="M274.41,111.89a29.86,29.86,0,0,1-6.9,0,29.86,29.86,0,0,1,6.9,0Z" fill="#e0e0e0"/><path d="M271,112.21c-3.57,0-3.57-.21-3.57-.32s0-.33,3.57-.33,3.58.21,3.58.33S274.54,112.21,271,112.21Zm-2.69-.32c.57,0,1.47.07,2.69.07s2.13,0,2.69-.07c-.56,0-1.47-.08-2.69-.08S268.84,111.85,268.27,111.89Z" fill="#e0e0e0"/><path d="M274.41,119.19a29.86,29.86,0,0,1-6.9,0,29.86,29.86,0,0,1,6.9,0Z" fill="#e0e0e0"/><path d="M271,119.52c-3.57,0-3.57-.21-3.57-.33s0-.32,3.57-.32,3.58.21,3.58.32S274.54,119.52,271,119.52Zm-2.68-.33c.56,0,1.46.08,2.68.08s2.13,0,2.69-.08c-.56,0-1.47-.07-2.69-.07S268.84,119.15,268.28,119.19Z" fill="#e0e0e0"/><path d="M274.41,126.5a29.86,29.86,0,0,1-6.9,0,29.86,29.86,0,0,1,6.9,0Z" fill="#e0e0e0"/><path d="M271,126.82c-3.57,0-3.57-.21-3.57-.32s0-.33,3.57-.33,3.58.22,3.58.33S274.54,126.82,271,126.82Zm-2.68-.32c.57,0,1.47.07,2.68.07s2.12,0,2.69-.07c-.58,0-1.5-.08-2.69-.08S268.86,126.46,268.28,126.5Z" fill="#e0e0e0"/><path d="M274.41,133.81a29.86,29.86,0,0,1-6.9,0,29.86,29.86,0,0,1,6.9,0Z" fill="#e0e0e0"/><path d="M271,134.13c-3.57,0-3.57-.21-3.57-.32s0-.33,3.57-.33,3.58.21,3.58.33S274.54,134.13,271,134.13Zm-2.68-.32c.56,0,1.46.07,2.68.07s2.13,0,2.69-.07c-.56,0-1.47-.08-2.69-.08S268.84,133.77,268.28,133.81Z" fill="#e0e0e0"/><path d="M274.41,141.11a29.86,29.86,0,0,1-6.9,0,29.86,29.86,0,0,1,6.9,0Z" fill="#e0e0e0"/><path d="M271,141.44c-3.57,0-3.57-.21-3.57-.33s0-.32,3.57-.32,3.58.21,3.58.32S274.54,141.44,271,141.44Zm-2.68-.33c.56,0,1.46.08,2.68.08s2.13,0,2.69-.08c-.56,0-1.47-.07-2.69-.07S268.84,141.07,268.28,141.11Z" fill="#e0e0e0"/><path d="M274.41,148.42a29.86,29.86,0,0,1-6.9,0,29.86,29.86,0,0,1,6.9,0Z" fill="#e0e0e0"/><path d="M271,148.74c-3.57,0-3.57-.21-3.57-.32s0-.33,3.57-.33,3.58.22,3.58.33S274.54,148.74,271,148.74Zm-2.69-.32c.57,0,1.47.07,2.69.07s2.13,0,2.69-.07c-.56,0-1.47-.08-2.69-.08S268.84,148.38,268.27,148.42Z" fill="#e0e0e0"/><path d="M274.41,155.73a31.42,31.42,0,0,1-6.9,0,29.86,29.86,0,0,1,6.9,0Z" fill="#e0e0e0"/><path d="M271,156.05c-3.57,0-3.57-.21-3.57-.32s0-.33,3.57-.33,3.58.21,3.58.33S274.54,156.05,271,156.05Zm-2.68-.32c.56,0,1.46.07,2.68.07s2.13,0,2.69-.07c-.56,0-1.47-.08-2.69-.08S268.84,155.68,268.28,155.73Z" fill="#e0e0e0"/><path d="M274.41,163a29.86,29.86,0,0,1-6.9,0,29.86,29.86,0,0,1,6.9,0Z" fill="#e0e0e0"/><path d="M271,163.36c-3.57,0-3.57-.22-3.57-.33s0-.32,3.57-.32,3.58.21,3.58.32S274.54,163.36,271,163.36Zm-2.68-.33c.57,0,1.47.08,2.68.08s2.12,0,2.69-.08c-.58,0-1.5-.07-2.69-.07S268.86,163,268.28,163Z" fill="#e0e0e0"/><path d="M274.41,170.34a29.86,29.86,0,0,1-6.9,0,29.86,29.86,0,0,1,6.9,0Z" fill="#e0e0e0"/><path d="M271,170.66c-3.57,0-3.57-.21-3.57-.32s0-.33,3.57-.33,3.58.21,3.58.33S274.54,170.66,271,170.66Zm-2.68-.32c.58,0,1.5.07,2.68.07s2.11,0,2.69-.07c-.57,0-1.47-.08-2.69-.08S268.85,170.3,268.28,170.34Z" fill="#e0e0e0"/><path d="M274.41,177.64a29.86,29.86,0,0,1-6.9,0,31.42,31.42,0,0,1,6.9,0Z" fill="#e0e0e0"/><path d="M271,178c-3.57,0-3.57-.21-3.57-.33s0-.32,3.57-.32,3.58.21,3.58.32S274.54,178,271,178Zm-2.68-.33c.56.05,1.46.08,2.68.08s2.13,0,2.69-.08c-.56,0-1.47-.07-2.69-.07S268.84,177.6,268.28,177.64Z" fill="#e0e0e0"/><path d="M274.41,185a29.86,29.86,0,0,1-6.9,0,29.86,29.86,0,0,1,6.9,0Z" fill="#e0e0e0"/><path d="M271,185.28c-3.57,0-3.57-.22-3.57-.33s0-.32,3.57-.32,3.58.21,3.58.32S274.54,185.28,271,185.28Zm-2.68-.33c.57,0,1.47.08,2.68.08s2.12,0,2.69-.08c-.58,0-1.5-.07-2.69-.07S268.86,184.91,268.28,185Z" fill="#e0e0e0"/><path d="M274.41,192.26a29.86,29.86,0,0,1-6.9,0,29.86,29.86,0,0,1,6.9,0Z" fill="#e0e0e0"/><path d="M271,192.58c-3.57,0-3.57-.21-3.57-.32s0-.33,3.57-.33,3.58.21,3.58.33S274.54,192.58,271,192.58Zm-2.69-.32c.57,0,1.47.07,2.69.07s2.13,0,2.69-.07c-.56,0-1.47-.08-2.69-.08S268.84,192.22,268.27,192.26Z" fill="#e0e0e0"/><path d="M274.41,199.56a29.86,29.86,0,0,1-6.9,0,29.86,29.86,0,0,1,6.9,0Z" fill="#e0e0e0"/><path d="M271,199.89c-3.57,0-3.57-.21-3.57-.33s0-.32,3.57-.32,3.58.21,3.58.32S274.54,199.89,271,199.89Zm-2.68-.33c.56,0,1.46.08,2.68.08s2.13,0,2.69-.08c-.56,0-1.47-.07-2.69-.07S268.84,199.52,268.28,199.56Z" fill="#e0e0e0"/><path d="M274.41,206.87a29.86,29.86,0,0,1-6.9,0,29.86,29.86,0,0,1,6.9,0Z" fill="#e0e0e0"/><path d="M271,207.2c-3.57,0-3.57-.22-3.57-.33s0-.32,3.57-.32,3.58.21,3.58.32S274.54,207.2,271,207.2Zm-2.69-.33c.57,0,1.47.08,2.69.08s2.13,0,2.69-.08c-.56,0-1.47-.07-2.69-.07S268.84,206.83,268.27,206.87Z" fill="#e0e0e0"/><path d="M302.07,104.15c0,.11-4,.2-8.95.2s-9-.09-9-.2,4-.2,9-.2S302.07,104,302.07,104.15Z" fill="#d64864"/><path d="M293.12,104.47c-2.39,0-4.64,0-6.34,0-2.74-.07-2.74-.11-2.74-.27s0-.21,2.74-.27c1.69,0,3.94-.06,6.34-.06s4.64,0,6.33.06c2.74.06,2.74.11,2.74.27s0,.2-2.74.27C297.76,104.45,295.51,104.47,293.12,104.47Zm-7-.32c1.55,0,4,.07,7,.07s5.43,0,7-.07c-1.56,0-4-.08-7-.08S287.68,104.11,286.13,104.15Z" fill="#d64864"/><path d="M302.07,206.87c0,.11-4,.2-8.95.2s-9-.09-9-.2,4-.2,9-.2S302.07,206.76,302.07,206.87Z" fill="#d64864"/><path d="M293.12,207.2c-2.4,0-4.65,0-6.34-.06-2.74-.06-2.74-.11-2.74-.27s0-.2,2.74-.27c1.69,0,3.94,0,6.34,0s4.64,0,6.33,0c2.74.07,2.74.11,2.74.27s0,.21-2.74.27C297.76,207.17,295.51,207.2,293.12,207.2Zm-7-.33c1.55,0,4,.08,7,.08s5.43,0,7-.08c-1.56,0-4-.07-7-.07S287.68,206.83,286.13,206.87Z" fill="#d64864"/><path d="M327,119.19c0,.11-7.5.2-16.75.2s-16.76-.09-16.76-.2,7.5-.2,16.76-.2S327,119.08,327,119.19Z" fill="#d64864"/><path d="M310.26,119.52c-4.48,0-8.69,0-11.85-.06-5-.06-5-.1-5-.27s0-.2,5-.26c3.16,0,7.37-.06,11.85-.06s8.68,0,11.84.06c5,.06,5,.09,5,.26s0,.21-5,.27C318.94,119.5,314.73,119.52,310.26,119.52Zm-13.06-.33c2.92,0,7.43.08,13.06.08s10.13,0,13.05-.08c-2.92,0-7.43-.07-13.05-.07S300.12,119.15,297.2,119.19Z" fill="#d64864"/><path d="M365.75,119.19c0,.11-7.5.2-16.75.2s-16.76-.09-16.76-.2,7.5-.2,16.76-.2S365.75,119.08,365.75,119.19Z" fill="#e0e0e0"/><path d="M349,119.52c-4.48,0-8.69,0-11.85-.06-5-.06-5-.1-5-.27s0-.2,5-.26c3.16,0,7.37-.06,11.85-.06s8.68,0,11.84.06c5,.06,5,.09,5,.26s0,.21-5,.27C357.68,119.5,353.47,119.52,349,119.52Zm-13.06-.33c2.92,0,7.43.08,13.06.08s10.13,0,13.05-.08c-2.92,0-7.43-.07-13.05-.07S338.86,119.15,335.94,119.19Z" fill="#e0e0e0"/><path d="M350.94,126.5c0,.11-11.05.2-24.69.2s-24.68-.09-24.68-.2,11.05-.2,24.68-.2S350.94,126.39,350.94,126.5Z" fill="#e0e0e0"/><path d="M326.25,126.82c-6.59,0-12.79,0-17.45,0-7.36-.06-7.36-.1-7.36-.27s0-.21,7.36-.27c4.66,0,10.86-.06,17.45-.06s12.79,0,17.46.06c7.36.06,7.36.09,7.36.27s0,.21-7.36.27C339.05,126.8,332.85,126.82,326.25,126.82ZM307,126.5c4.29,0,10.94.07,19.24.07s14.95,0,19.24-.07c-4.29,0-10.93-.08-19.24-.08S311.3,126.46,307,126.5Z" fill="#e0e0e0"/><path d="M350.94,133.81c0,.11-11.05.2-24.69.2s-24.68-.09-24.68-.2,11.05-.2,24.68-.2S350.94,133.7,350.94,133.81Z" fill="#e0e0e0"/><path d="M326.25,134.13c-6.59,0-12.79,0-17.45-.06-7.36-.06-7.36-.09-7.36-.26s0-.21,7.36-.27c4.66,0,10.86-.06,17.45-.06s12.8,0,17.46.06c7.36.06,7.36.09,7.36.27s0,.2-7.36.26C339.05,134.11,332.85,134.13,326.25,134.13ZM307,133.81c4.29,0,10.93.07,19.22.07s14.94,0,19.23-.07c-4.29-.05-10.93-.08-19.23-.08S311.32,133.76,307,133.81Z" fill="#e0e0e0"/><path d="M384.93,155.73c0,.11-11.06.19-24.69.19s-24.69-.08-24.69-.19,11.05-.2,24.69-.2S384.93,155.62,384.93,155.73Z" fill="#e0e0e0"/><path d="M360.24,156.05c-6.59,0-12.79,0-17.46-.06-7.35-.06-7.35-.09-7.35-.26s0-.21,7.35-.27c4.66,0,10.87-.06,17.46-.06s12.8,0,17.46.06c7.35.06,7.35.09,7.35.27s0,.2-7.35.26C373,156,366.83,156.05,360.24,156.05ZM341,155.73c4.3,0,10.94.07,19.23.07s14.94,0,19.23-.07c-4.29,0-10.94-.08-19.23-.08S345.31,155.68,341,155.73Z" fill="#e0e0e0"/><path d="M370.26,141.11c0,.11-11.05.2-24.68.2s-24.69-.09-24.69-.2,11.05-.2,24.69-.2S370.26,141,370.26,141.11Z" fill="#e0e0e0"/><path d="M345.58,141.44c-6.6,0-12.8,0-17.46-.06-7.36-.06-7.36-.09-7.36-.27s0-.2,7.36-.26c4.66,0,10.86-.06,17.46-.06s12.79,0,17.45.06c7.36.06,7.36.09,7.36.26s0,.21-7.36.27C358.37,141.42,352.17,141.44,345.58,141.44Zm-19.23-.33c4.29,0,10.93.08,19.23.08s14.93,0,19.22-.08c-4.29,0-10.93-.07-19.22-.07S330.64,141.07,326.35,141.11Z" fill="#e0e0e0"/><path d="M430.6,141.11c0,.11-11.05.2-24.69.2s-24.69-.09-24.69-.2,11.06-.2,24.69-.2S430.6,141,430.6,141.11Z" fill="#e0e0e0"/><path d="M405.91,141.44c-6.59,0-12.79,0-17.46-.06-7.35-.06-7.35-.09-7.35-.27s0-.2,7.35-.26c4.67,0,10.87-.06,17.46-.06s12.79,0,17.46.06c7.35.06,7.35.09,7.35.26s0,.21-7.35.27C418.71,141.42,412.51,141.44,405.91,141.44Zm-19.22-.33c4.29,0,10.93.08,19.22.08s14.94,0,19.23-.08c-4.29,0-10.94-.07-19.23-.07S391,141.07,386.69,141.11Z" fill="#e0e0e0"/><path d="M409.62,126.5c0,.11-11.06.2-24.69.2s-24.69-.09-24.69-.2,11.05-.2,24.69-.2S409.62,126.39,409.62,126.5Z" fill="#e0e0e0"/><path d="M384.93,126.82c-6.6,0-12.8,0-17.46,0-7.35-.06-7.35-.1-7.35-.27s0-.21,7.35-.27c4.67,0,10.87-.06,17.46-.06s12.79,0,17.46.06c7.35.06,7.35.09,7.35.27s0,.21-7.35.27C397.72,126.8,391.52,126.82,384.93,126.82Zm-19.24-.32c4.29,0,10.94.07,19.24.07s14.95,0,19.24-.07c-4.29,0-10.94-.08-19.24-.08S370,126.46,365.69,126.5Z" fill="#e0e0e0"/><path d="M443.72,155.73c0,.11-11.05.19-24.68.19s-24.69-.08-24.69-.19,11-.2,24.69-.2S443.72,155.62,443.72,155.73Z" fill="#e0e0e0"/><path d="M419,156.05c-6.6,0-12.8,0-17.46-.06-7.36-.06-7.36-.09-7.36-.26s0-.21,7.36-.27c4.66,0,10.86-.06,17.46-.06s12.79,0,17.45.06c7.36.06,7.36.09,7.36.27s0,.2-7.36.26C431.83,156,425.63,156.05,419,156.05Zm-19.23-.32c4.29,0,10.93.07,19.23.07s14.93,0,19.22-.07c-4.29,0-10.93-.08-19.22-.08S404.1,155.68,399.81,155.73Z" fill="#e0e0e0"/><path d="M436.91,133.81c0,.11-17.16.2-38.33.2s-38.34-.09-38.34-.2,17.16-.2,38.34-.2S436.91,133.7,436.91,133.81Z" fill="#455a64"/><path d="M398.58,134.13c-10.24,0-19.87,0-27.11-.06-8.4,0-10.59-.07-11.15-.15h0c-.16,0-.16-.06-.16-.1s0-.08.15-.11h0c.57-.08,2.75-.11,11.16-.15,7.24,0,16.86-.06,27.11-.06s19.86,0,27.1.06c8.41,0,10.59.07,11.16.15h0c.16,0,.16.06.16.11s0,.07-.16.1h0c-.57.08-2.76.11-11.16.15C418.44,134.11,408.81,134.13,398.58,134.13Zm-29.91-.32c7.06,0,17.9.07,29.91.07s22.84,0,29.9-.07c-7.06-.05-17.9-.08-29.9-.08S375.73,133.76,368.67,133.81Z" fill="#455a64"/><path d="M302.07,111.89c0,.11-4,.2-8.95.2s-9-.09-9-.2,4-.2,9-.2S302.07,111.78,302.07,111.89Z" fill="#e0e0e0"/><path d="M293.12,112.21c-2.4,0-4.65,0-6.34-.06-2.74-.06-2.74-.11-2.74-.26s0-.21,2.74-.27c1.69,0,3.94-.06,6.34-.06s4.64,0,6.33.06c2.74.06,2.74.11,2.74.27s0,.2-2.74.26C297.76,112.19,295.51,112.21,293.12,112.21Zm-7-.32c1.55,0,4,.07,7,.07s5.43,0,7-.07c-1.56,0-4-.08-7-.08S287.68,111.84,286.13,111.89Z" fill="#e0e0e0"/><path d="M302.07,199.56c0,.11-4,.2-8.95.2s-9-.09-9-.2,4-.2,9-.2S302.07,199.45,302.07,199.56Z" fill="#e0e0e0"/><path d="M293.12,199.89c-2.4,0-4.65,0-6.34-.06-2.74-.06-2.74-.11-2.74-.27s0-.2,2.74-.26c1.69,0,3.94-.06,6.34-.06s4.64,0,6.33.06c2.74.06,2.74.11,2.74.26s0,.21-2.74.27C297.76,199.87,295.51,199.89,293.12,199.89Zm-7-.33c1.56.05,4,.08,7,.08s5.42,0,7-.08c-1.56,0-4-.07-7-.07S287.69,199.52,286.13,199.56Z" fill="#e0e0e0"/><path d="M310.94,141.11c0,.11-4,.2-8.95.2s-9-.09-9-.2,4-.2,9-.2S310.94,141,310.94,141.11Z" fill="#e0e0e0"/><path d="M302,141.44c-2.4,0-4.65,0-6.34-.06-2.74-.06-2.74-.11-2.74-.27s0-.2,2.74-.26c1.7,0,4-.06,6.34-.06s4.64,0,6.33.06c2.75.06,2.75.1,2.75.26s0,.21-2.75.27C306.63,141.42,304.38,141.44,302,141.44Zm-7-.33c1.56,0,4,.08,7,.08s5.42,0,7-.08c-1.56,0-4-.07-7-.07S296.56,141.07,295,141.11Z" fill="#e0e0e0"/><path d="M454.46,141.11c0,.11-4,.2-9,.2s-8.95-.09-8.95-.2,4-.2,8.95-.2S454.46,141,454.46,141.11Z" fill="#d64864"/><path d="M445.5,141.44c-2.39,0-4.64,0-6.33-.06-2.75-.06-2.75-.11-2.75-.27s0-.2,2.75-.26c1.69,0,3.94-.06,6.33-.06s4.64,0,6.34.06c2.74.06,2.74.1,2.74.26s0,.21-2.74.27C450.14,141.42,447.9,141.44,445.5,141.44Zm-7-.33c1.56,0,4,.08,7,.08s5.43,0,7-.08c-1.56,0-4-.07-7-.07S440.08,141.07,438.52,141.11Z" fill="#d64864"/><path d="M327,170.3c0,.11-7.5.19-16.75.19s-16.76-.08-16.76-.19,7.5-.2,16.76-.2S327,170.19,327,170.3Z" fill="#d64864"/><path d="M310.26,170.62c-4.48,0-8.68,0-11.85-.06-5-.06-5-.09-5-.26s0-.21,5-.27c3.16,0,7.37-.06,11.85-.06s8.68,0,11.84.06c5,.06,5,.09,5,.27s0,.2-5,.26C318.93,170.6,314.73,170.62,310.26,170.62Zm-13.07-.32c2.92,0,7.44.07,13.07.07s10.14,0,13.06-.07c-2.92-.05-7.44-.08-13.06-.08S300.11,170.25,297.19,170.3Z" fill="#d64864"/><path d="M365.75,170.3c0,.11-7.5.19-16.75.19s-16.76-.08-16.76-.19,7.5-.2,16.76-.2S365.75,170.19,365.75,170.3Z" fill="#e0e0e0"/><path d="M349,170.62c-4.48,0-8.68,0-11.85-.06-5-.06-5-.09-5-.26s0-.21,5-.27c3.16,0,7.37-.06,11.85-.06s8.68,0,11.84.06c5,.06,5,.09,5,.27s0,.2-5,.26C357.67,170.6,353.47,170.62,349,170.62Zm-13.07-.32c2.92,0,7.44.07,13.07.07s10.14,0,13.06-.07c-2.92-.05-7.44-.08-13.06-.08S338.85,170.25,335.93,170.3Z" fill="#e0e0e0"/><path d="M350.94,177.6c0,.11-11.05.2-24.69.2s-24.68-.09-24.68-.2,11.05-.2,24.68-.2S350.94,177.49,350.94,177.6Z" fill="#e0e0e0"/><path d="M326.25,177.93c-6.59,0-12.79,0-17.45-.06-7.36-.06-7.36-.09-7.36-.27s0-.2,7.36-.26c4.66,0,10.86-.06,17.45-.06s12.8,0,17.46.06c7.36.06,7.36.09,7.36.26s0,.21-7.36.27C339.05,177.91,332.85,177.93,326.25,177.93ZM307,177.6c4.29,0,10.93.08,19.22.08s14.94,0,19.23-.08c-4.29,0-10.93-.07-19.23-.07S311.32,177.56,307,177.6Z" fill="#e0e0e0"/><path d="M350.94,184.91c0,.11-11.05.2-24.69.2s-24.68-.09-24.68-.2,11.05-.2,24.68-.2S350.94,184.8,350.94,184.91Z" fill="#e0e0e0"/><path d="M326.25,185.23c-6.59,0-12.79,0-17.45-.06-7.36-.06-7.36-.09-7.36-.26s0-.21,7.36-.27c4.66,0,10.86-.06,17.45-.06s12.79,0,17.46.06c7.36.06,7.36.09,7.36.27s0,.2-7.36.26C339.05,185.21,332.85,185.23,326.25,185.23ZM307,184.91c4.29,0,10.94.07,19.24.07s14.95,0,19.24-.07c-4.29,0-10.93-.08-19.24-.08S311.3,184.86,307,184.91Z" fill="#e0e0e0"/><path d="M370.26,192.21c0,.11-11.05.2-24.68.2s-24.69-.09-24.69-.2,11.05-.19,24.69-.19S370.26,192.1,370.26,192.21Z" fill="#e0e0e0"/><path d="M345.58,192.54c-6.59,0-12.79,0-17.46-.06-7.36-.06-7.36-.09-7.36-.27s0-.2,7.36-.26c4.66,0,10.86-.06,17.46-.06s12.79,0,17.45.06c7.36.06,7.36.09,7.36.26s0,.21-7.36.27C358.36,192.52,352.16,192.54,345.58,192.54Zm-19.25-.33c4.3,0,10.94.08,19.25.08s14.94,0,19.24-.08c-4.3,0-10.94-.07-19.24-.07S330.63,192.17,326.33,192.21Z" fill="#e0e0e0"/><path d="M430.6,192.21c0,.11-11.05.2-24.69.2s-24.69-.09-24.69-.2,11.06-.19,24.69-.19S430.6,192.1,430.6,192.21Z" fill="#e0e0e0"/><path d="M405.91,192.54c-6.59,0-12.79,0-17.46-.06-7.35-.06-7.35-.09-7.35-.27s0-.2,7.35-.26c4.67,0,10.87-.06,17.46-.06s12.8,0,17.46.06c7.35.06,7.35.09,7.35.26s0,.21-7.35.27C418.7,192.52,412.5,192.54,405.91,192.54Zm-19.24-.33c4.29,0,10.94.08,19.24.08s14.95,0,19.24-.08c-4.29,0-10.94-.07-19.24-.07S391,192.17,386.67,192.21Z" fill="#e0e0e0"/><path d="M409.62,177.6c0,.11-11.06.2-24.69.2s-24.69-.09-24.69-.2,11.05-.2,24.69-.2S409.62,177.49,409.62,177.6Z" fill="#e0e0e0"/><path d="M384.93,177.93c-6.59,0-12.79,0-17.46-.06-7.35-.06-7.35-.09-7.35-.27s0-.2,7.35-.26c4.66,0,10.86-.06,17.46-.06s12.79,0,17.46.06c7.35.06,7.35.09,7.35.26s0,.21-7.35.27C397.72,177.91,391.52,177.93,384.93,177.93Zm-19.23-.33c4.29,0,10.94.08,19.23.08s14.93,0,19.22-.08c-4.29,0-10.93-.07-19.22-.07S370,177.56,365.7,177.6Z" fill="#e0e0e0"/><path d="M436.91,184.91c0,.11-17.16.2-38.33.2s-38.34-.09-38.34-.2,17.16-.2,38.34-.2S436.91,184.8,436.91,184.91Z" fill="#455a64"/><path d="M398.58,185.23c-10.25,0-19.87,0-27.11-.06-8.41,0-10.59-.07-11.16-.15h0v0c-.16,0-.16-.06-.16-.1s0-.08.15-.11h0c.57-.09,2.76-.11,11.16-.16,7.25,0,16.88-.06,27.11-.06s19.85,0,27.1.06c8.41.05,10.59.07,11.16.16h0c.16,0,.16.06.16.11s0,.08-.16.1v0h0c-.57.08-2.75.11-11.16.15C418.44,185.21,408.82,185.23,398.58,185.23Zm-29.93-.32c7.06,0,17.91.07,29.93.07s22.87,0,29.93-.07c-7.06,0-17.91-.08-29.93-.08S375.71,184.86,368.65,184.91Z" fill="#455a64"/><path d="M310.94,192.21c0,.11-4,.2-8.95.2s-9-.09-9-.2,4-.19,9-.19S310.94,192.1,310.94,192.21Z" fill="#e0e0e0"/><path d="M302,192.54c-2.39,0-4.64,0-6.34-.06-2.74-.06-2.74-.11-2.74-.27s0-.2,2.74-.26c1.69,0,3.94-.06,6.34-.06s4.64,0,6.33.06c2.75.06,2.75.11,2.75.26s0,.21-2.75.27C306.63,192.52,304.38,192.54,302,192.54Zm-7-.33c1.56,0,4,.08,7,.08s5.43,0,7-.08c-1.56,0-4-.07-7-.07S296.56,192.17,295,192.21Z" fill="#e0e0e0"/><path d="M454.46,192.21c0,.11-4,.2-9,.2s-8.95-.09-8.95-.2,4-.19,8.95-.19S454.46,192.1,454.46,192.21Z" fill="#d64864"/><path d="M445.5,192.54c-2.39,0-4.64,0-6.33-.06-2.75-.06-2.75-.11-2.75-.27s0-.2,2.75-.26c1.69,0,3.94-.06,6.33-.06s4.64,0,6.34.06c2.74.06,2.74.11,2.74.26s0,.21-2.74.27C450.14,192.52,447.89,192.54,445.5,192.54Zm-7-.33c1.56,0,4,.08,7,.08s5.43,0,7-.08c-1.56,0-4-.07-7-.07S440.07,192.17,438.51,192.21Z" fill="#d64864"/><path fill="#d64864" d="M504.18 62.1H571.28V109.93H504.18z"/><path d="M571.81,69.2c0,.16-15.14.3-33.83.3s-33.83-.14-33.83-.3,15.15-.29,33.83-.29S571.81,69,571.81,69.2Z" fill="#fff"/><path d="M509.66,65.71a.91.91,0,1,1-.9-.79A.85.85,0,0,1,509.66,65.71Z" fill="#fff"/><path d="M513,65.71a.91.91,0,1,1-.9-.79A.85.85,0,0,1,513,65.71Z" fill="#fff"/><path d="M516.25,65.71a.86.86,0,0,1-.91.79.8.8,0,1,1,0-1.58A.86.86,0,0,1,516.25,65.71Z" fill="#fff"/><path d="M529,88.28c0,2.87-2.08,4.6-5.51,4.6h-3.62v4.26h-1.43V83.65h5C526.92,83.65,529,85.39,529,88.28Zm-1.42,0c0-2.16-1.43-3.39-4.13-3.39h-3.58v6.74h3.58C526.15,91.63,527.58,90.4,527.58,88.28Z" fill="#fff"/><path d="M543.35,83.65V97.14h-1.41V90.92H533.5v6.22h-1.42V83.65h1.42v6h8.44v-6Z" fill="#fff"/><path d="M558.3,88.28c0,2.87-2.08,4.6-5.51,4.6h-3.63v4.26h-1.42V83.65h5C556.22,83.65,558.3,85.39,558.3,88.28Zm-1.43,0c0-2.16-1.42-3.39-4.12-3.39h-3.59v6.74h3.59C555.45,91.63,556.87,90.4,556.87,88.28Z" fill="#fff"/><path fill="#d64864" d="M208.61 50.22H249.76000000000002V79.55H208.61z"/><path d="M222.49,63.84v5.83h-1.35V67.28h-2.65v2.39h-1.34V63.84h1.34v2.3h2.65v-2.3Z" fill="#fff"/><path d="M225.07,64.94h-1.86v-1.1h5.07v1.1h-1.86v4.73h-1.35Z" fill="#fff"/><path d="M236.41,63.84h1.35v4.73h2.92v1.1h-4.27Z" fill="#fff"/><path d="M234.33,69.67v-3.5l-1.71,2.88H232l-1.7-2.8v3.42H229V63.84h1.12l2.18,3.62,2.14-3.62h1.11v5.83Z" fill="#fff"/><path d="M250.08,54.58c0,.07-9.29.12-20.74.12s-20.75-.05-20.75-.12,9.29-.13,20.75-.13S250.08,54.5,250.08,54.58Z" fill="#fff"/><path d="M212,52.43a.56.56,0,1,1-.56-.48A.53.53,0,0,1,212,52.43Z" fill="#fff"/><path d="M214,52.43a.56.56,0,1,1-.56-.48A.53.53,0,0,1,214,52.43Z" fill="#fff"/><path d="M216,52.43a.56.56,0,1,1-.56-.48A.53.53,0,0,1,216,52.43Z" fill="#fff"/><path d="M120.4,112.09a9.06,9.06,0,0,1,9.41-9.2,8.63,8.63,0,0,1,6.45,2.52l-.83.85a7.6,7.6,0,0,0-5.57-2.15,8,8,0,1,0,0,16,7.63,7.63,0,0,0,5.57-2.18l.83.86a8.68,8.68,0,0,1-6.45,2.53A9.06,9.06,0,0,1,120.4,112.09Z" fill="#d64864"/><path d="M138.74,118.82l.6-1a8.64,8.64,0,0,0,6,2.28c3.63,0,5.24-1.58,5.24-3.55,0-5.44-11.32-2.18-11.32-8.86,0-2.56,2-4.82,6.42-4.82a9.68,9.68,0,0,1,5.47,1.64l-.5,1.06a8.92,8.92,0,0,0-5-1.53c-3.52,0-5.1,1.63-5.1,3.63,0,5.44,11.32,2.22,11.32,8.8,0,2.57-2,4.79-6.53,4.79A9.31,9.31,0,0,1,138.74,118.82Z" fill="#d64864"/><path d="M154.52,118.82l.59-1a8.67,8.67,0,0,0,6,2.28c3.62,0,5.23-1.58,5.23-3.55,0-5.44-11.32-2.18-11.32-8.86,0-2.56,2-4.82,6.42-4.82a9.66,9.66,0,0,1,5.47,1.64l-.49,1.06a8.93,8.93,0,0,0-5-1.53c-3.52,0-5.1,1.63-5.1,3.63,0,5.44,11.32,2.22,11.32,8.8,0,2.57-2.05,4.79-6.53,4.79A9.29,9.29,0,0,1,154.52,118.82Z" fill="#d64864"/><path d="M183.09,135.66s0-.33,0-1,0-1.57,0-2.76c0-2.43,0-6-.06-10.49,0-9.06-.08-22.07-.14-37.95l.26.26-80.76.06h0l.32-.32c0,18.53,0,36.16,0,52.16l-.3-.29,58.1.14,16.66.08,4.45,0h1.15l.41,0-.37,0-1.12,0-4.39,0-16.6.08-58.29.15H102v-.3c0-16,0-33.63,0-52.16v-.32h.33l80.76.07h.25v.25c-.06,16-.1,29-.13,38.11,0,4.49-.05,8-.07,10.43,0,1.17,0,2.08,0,2.71S183.09,135.66,183.09,135.66Z" fill="#d64864"/><path d="M183.09,91.24c0,.18-18.09.32-40.4.32s-40.4-.14-40.4-.32,18.08-.32,40.4-.32S183.09,91.07,183.09,91.24Z" fill="#d64864"/><path d="M108.29,87.44a.93.93,0,0,1-1,.86.87.87,0,1,1,1-.86Z" fill="#d64864"/><path d="M111.89,87.44a.94.94,0,0,1-1,.86.87.87,0,1,1,0-1.73A.94.94,0,0,1,111.89,87.44Z" fill="#d64864"/><path d="M115.48,87.44a1,1,0,1,1-1-.87A.93.93,0,0,1,115.48,87.44Z" fill="#d64864"/></g></svg>